<?xml version="1.0" encoding="utf-8"?>
<!-- Generator: Adobe Illustrator 15.1.0, SVG Export Plug-In . SVG Version: 6.00 Build 0)  -->
<!DOCTYPE svg PUBLIC "-//W3C//DTD SVG 1.0//EN" "http://www.w3.org/TR/2001/REC-SVG-20010904/DTD/svg10.dtd">
<svg version="1.0" id="Layer_1" xmlns="http://www.w3.org/2000/svg" xmlns:xlink="http://www.w3.org/1999/xlink" x="0px" y="0px"
	 width="600px" height="340px" viewBox="0 0 150.173 84.979" enable-background="new 0 0 150.173 84.979"
	 xml:space="preserve">
<g>
	<g>
		<path fill="#003262" d="M11.621,62.059c0-1.242-0.932-1.706-2.91-2.23c-1.727-0.467-3.628-1.204-3.628-3.552
			c0-2.036,1.649-3.413,4.055-3.413c1.396,0,2.657,0.349,3.821,1.066l-0.582,1.438c-0.932-0.623-2.134-1.011-3.221-1.011
			c-1.746,0-2.464,0.796-2.464,1.805c0,1.222,1.028,1.647,2.949,2.172c1.766,0.467,3.57,1.321,3.57,3.608
			c0,2.096-1.726,3.628-4.268,3.628c-1.417,0-2.891-0.405-4.055-1.145l0.543-1.493c1.028,0.68,2.134,1.164,3.549,1.164
			C10.515,64.096,11.621,63.262,11.621,62.059z"/>
		<path fill="#003262" d="M24.835,55.367c-1.066-0.7-2.057-1.03-3.317-1.03c-2.638,0-4.404,1.824-4.404,4.831
			s1.785,4.928,4.443,4.928c1.299,0,2.58-0.524,3.433-1.185l0.271,1.649c-0.989,0.622-2.385,1.009-3.744,1.009
			c-3.549,0-6.072-2.462-6.072-6.323c0-3.86,2.542-6.383,6.072-6.383c1.377,0,2.852,0.387,3.842,1.01L24.835,55.367z"/>
		<path fill="#003262" d="M36.638,65.279v-5.354h-6.655v5.354h-1.649V53.154h1.649v5.277h6.655v-5.277h1.629v12.125H36.638z"/>
		<path fill="#003262" d="M47.372,65.569c-3.549,0-6.091-2.482-6.091-6.323c0-3.628,2.521-6.383,6.091-6.383
			c3.551,0,6.093,2.463,6.093,6.305C53.464,62.796,50.941,65.569,47.372,65.569z M47.334,54.337c-2.581,0-4.385,1.921-4.385,4.831
			c0,2.988,1.804,4.928,4.462,4.928c2.58,0,4.404-1.939,4.404-4.85C51.815,56.258,49.991,54.337,47.334,54.337z"/>
		<path fill="#003262" d="M61.929,65.569c-3.549,0-6.091-2.482-6.091-6.323c0-3.628,2.521-6.383,6.091-6.383
			c3.551,0,6.093,2.463,6.093,6.305C68.022,62.796,65.5,65.569,61.929,65.569z M61.892,54.337c-2.581,0-4.385,1.921-4.385,4.831
			c0,2.988,1.804,4.928,4.462,4.928c2.58,0,4.404-1.939,4.404-4.85C66.373,56.258,64.548,54.337,61.892,54.337z"/>
		<path fill="#003262" d="M71.036,65.279V53.154h1.649v10.572h5.858v1.553H71.036z"/>
		<path fill="#003262" d="M91.471,65.569c-3.549,0-6.091-2.482-6.091-6.323c0-3.628,2.521-6.383,6.091-6.383
			c3.551,0,6.092,2.463,6.092,6.305C97.563,62.796,95.041,65.569,91.471,65.569z M91.433,54.337c-2.581,0-4.385,1.921-4.385,4.831
			c0,2.988,1.804,4.928,4.462,4.928c2.58,0,4.404-1.939,4.404-4.85C95.915,56.258,94.09,54.337,91.433,54.337z"/>
		<path fill="#003262" d="M100.578,53.154h7.489v1.553h-5.84v3.938h4.831v1.532h-4.831v5.103h-1.649V53.154z"/>
		<path fill="#003262" d="M5.762,84.689V72.564H7.39v12.125H5.762z"/>
		<path fill="#003262" d="M20.392,72.564h1.611v12.24h-1.785l-6.499-9.894v9.778h-1.611V72.564h1.825l6.459,9.777V72.564z"/>
		<path fill="#003262" d="M25.85,72.564h7.489v1.551h-5.84v3.939h4.831v1.532h-4.831v5.103H25.85V72.564z"/>
		<path fill="#003262" d="M41.102,84.979c-3.549,0-6.091-2.482-6.091-6.324c0-3.627,2.522-6.382,6.091-6.382
			c3.551,0,6.093,2.463,6.093,6.305C47.195,82.206,44.672,84.979,41.102,84.979z M41.064,73.747c-2.581,0-4.385,1.921-4.385,4.831
			c0,2.986,1.804,4.928,4.462,4.928c2.58,0,4.404-1.941,4.404-4.851C45.546,75.668,43.721,73.747,41.064,73.747z"/>
		<path fill="#003262" d="M51.664,84.689h-1.649V72.564c0,0,3.61,0,3.628,0c2.929,0,4.461,1.396,4.461,3.549
			c0,1.824-1.066,2.949-2.734,3.493l3.278,5.083h-1.959l-2.949-4.812l-2.076,0.136V84.689z M53.662,78.5
			c1.591-0.059,2.794-0.814,2.794-2.308c0-1.436-1.164-2.115-3.008-2.115h-1.785v4.481L53.662,78.5z"/>
		<path fill="#003262" d="M72.021,74.601l-3.687,9.913h-1.649l-3.704-9.933l-0.136,10.108h-1.611l0.408-12.125h2.192l3.725,9.972
			l3.706-9.972h2.153l0.389,12.125h-1.67L72.021,74.601z"/>
		<path fill="#003262" d="M87.024,84.689h-1.687l-1.145-3.182h-5.257l-1.146,3.182h-1.708l4.559-12.125h1.883L87.024,84.689z
			 M81.573,74.271l-2.094,5.742h4.17L81.573,74.271z"/>
		<path fill="#003262" d="M93.295,74.115v10.574h-1.63V74.115h-4.249v-1.551h10.126v1.551H93.295z"/>
		<path fill="#003262" d="M99.684,84.689V72.564h1.628v12.125H99.684z"/>
		<path fill="#003262" d="M110.472,84.979c-3.549,0-6.091-2.482-6.091-6.324c0-3.627,2.522-6.382,6.091-6.382
			c3.551,0,6.093,2.463,6.093,6.305C116.565,82.206,114.042,84.979,110.472,84.979z M110.435,73.747
			c-2.582,0-4.385,1.921-4.385,4.831c0,2.986,1.804,4.928,4.462,4.928c2.58,0,4.404-1.941,4.404-4.851
			C114.916,75.668,113.091,73.747,110.435,73.747z"/>
		<path fill="#003262" d="M127.376,72.564h1.611v12.24h-1.785l-6.498-9.894v9.778h-1.612V72.564h1.825l6.459,9.777V72.564z"/>
	</g>
	<g>
		<path fill="#003262" d="M11.665,16.592c-1.534,0-1.972,0.22-1.972,1.425v9.801c0,0.494,0.164,3.56,0.657,4.108
			c0.603,0.656,2.354,1.04,4.108,1.04c4.161,0,7.228-2.848,7.228-7.611C21.685,20.426,17.633,16.592,11.665,16.592 M13.471,1.314
			c-3.614,0-3.778,0.493-3.778,1.588v11.884c0,0.876,0.711,0.767,2.026,0.767c3.34,0,5.64,0.328,5.64,0.328
			c1.588-1.205,3.396-2.245,3.396-6.571C20.755,6.572,18.455,1.314,13.471,1.314 M14.183,33.952c-2.3,0-4.6-0.547-7.01-0.547
			c-2.3,0-3.504,0.219-5.257,0.219c-0.548,0-0.931-0.056-0.931-0.603c0-0.548,0.328-0.657,1.533-0.657
			c2.464,0,2.574-0.109,2.574-0.93V6.243c0-4.326-0.877-4.818-2.41-4.818C0.218,1.424,0,1.369,0,0.712
			c0-0.383,0.164-0.438,1.095-0.438c1.698,0,3.396,0.055,5.312,0.055C7.557,0.329,10.186,0,15.114,0C22.233,0,25.3,3.669,25.3,7.557
			s-2.354,5.805-4.107,7.009c-1.041,0.712-2.246,1.314-2.246,1.479c0,0.109,1.041,0.383,2.136,0.931
			c2.574,1.314,5.805,3.177,5.805,7.941C26.888,31.05,21.795,33.952,14.183,33.952"/>
		<path fill="#003262" d="M37.011,14.639c-3.62,0-4.764,5.429-4.764,6.096c0,0.239,0,0.286,0.572,0.286
			c2.477,0,5.048-0.62,8.621-1.191c0.524-0.095,0.572-0.19,0.572-0.476C42.012,18.163,39.202,14.639,37.011,14.639 M44.346,20.354
			c-1.238,0.286-6.002,1.334-11.431,1.667c-0.763,0.048-0.906,0.286-0.906,1.381c0,6.573,5.097,8.335,8.717,8.335
			c3.144,0,4.858-1.143,5.144-1.143c0.238,0,0.381,0.285,0.381,0.381c0,0.237-4.049,3.239-7.908,3.239
			c-3.905,0-9.716-1.906-9.716-9.859c0-6.717,4.525-10.718,8.859-10.718c2.478,0,5.526,1.573,7.24,3.573
			c0.81,0.952,1.572,2.095,1.572,2.476C46.299,19.877,45.632,20.068,44.346,20.354"/>
		<path fill="#003262" d="M61.779,19.067c-0.667,0-1.238-1.953-3.621-1.953c-2.762,0-3.81,1.143-3.81,3.143v9.813
			c0,2.334,0.143,2.334,3.667,2.334c1.238,0,1.286,0.143,1.286,0.572c0,0.524-0.047,0.477-1.286,0.477
			c-0.667,0-3.858-0.238-5.382-0.238c-1.62,0-3.239,0.238-3.905,0.238c-1.096,0-1.192,0-1.192-0.477
			c0-0.478,0.048-0.572,1.192-0.572c1.952,0,2.095-0.048,2.095-0.715V18.639c0-3.239,0.095-3.333-2.572-3.333
			c-0.858,0-0.858,0.048-0.858-0.477c0-0.572-0.048-0.715,0.763-0.715c1.619,0,2.524,0.095,3.477,0.095
			c0.762,0,1.667-0.238,2.429-0.238c0.191,0,0.381,0.143,0.381,0.524c0,0.238-0.096,1.286-0.096,1.429
			c0,0.429,0.047,0.762,0.238,0.762c0.714,0,2.953-2.477,5.191-2.477c0.858,0,3.049,1.048,3.049,2.287
			C62.826,16.972,62.064,19.067,61.779,19.067"/>
		<path fill="#003262" d="M84.308,33.644c-0.571,0-1.19-0.048-1.619-0.048c-0.571,0-2,0.048-2.667,0.048
			c-0.859,0-1.288-1.192-3.288-3.478c-2-2.286-4.002-5.287-4.288-5.287c-0.19,0-0.857,0.477-1.667,1
			c-0.762,0.477-1.429,0.811-1.429,1.239v3c0,2.238-0.095,2.238,2.858,2.238c1.095,0,1.286,0.238,1.286,0.62
			c0,0.477-0.238,0.477-1.286,0.477c-0.714,0-2.905-0.096-4.429-0.096c-1.62,0-3.382,0.096-4.049,0.096
			c-1.096,0-1.381-0.048-1.381-0.477c0-0.382,0.238-0.62,1.381-0.62c1.619,0,2.048,0,2.048-0.715c0-1.381,0.143-15.479,0.143-25.529
			c0-3.382-0.381-3.811-1.667-3.811c-1.953,0-2.143-0.143-2.143-0.477c0-0.476,0.095-0.667,0.619-0.667
			c3.429,0,6.24-1.047,6.668-1.047c0.238,0,0.333,0.143,0.333,0.429c0,0.619-0.095,2.62-0.095,4.144
			c0,7.24-0.286,12.575-0.286,20.338c0,0.19,0.048,0.334,0.191,0.334c1.191,0,6.146-4.382,7.669-5.812
			c1.857-1.762,2.286-2.571,2.286-3.571c0-0.762-0.143-0.857-2.238-0.857c-0.714,0-0.953-0.096-0.953-0.524
			c0-0.381,0.238-0.477,0.857-0.477c0.476,0,1.381,0.143,1.952,0.143c0.619,0,3.382-0.143,3.954-0.143
			c0.381,0,0.572,0.048,0.572,0.191c0,0.429-1.619,2.478-3.095,3.906c-2.382,2.334-5.335,4.429-5.335,4.763
			c0,0.429,0.857,1.334,4.191,5.335c1.621,1.952,3.144,4.286,4.763,4.286c1.143,0,1.524,0.238,1.524,0.62
			C85.69,33.548,85.356,33.644,84.308,33.644"/>
		<path fill="#003262" d="M92.549,14.639c-3.62,0-4.762,5.429-4.762,6.096c0,0.239,0,0.286,0.571,0.286
			c2.476,0,5.048-0.62,8.621-1.191c0.523-0.095,0.571-0.19,0.571-0.476C97.551,18.163,94.741,14.639,92.549,14.639 M99.885,20.354
			c-1.239,0.286-6.002,1.334-11.432,1.667c-0.762,0.048-0.905,0.286-0.905,1.381c0,6.573,5.096,8.335,8.716,8.335
			c3.144,0,4.859-1.143,5.145-1.143c0.237,0,0.38,0.285,0.38,0.381c0,0.237-4.049,3.239-7.907,3.239
			c-3.906,0-9.717-1.906-9.717-9.859c0-6.717,4.525-10.718,8.859-10.718c2.477,0,5.525,1.573,7.241,3.573
			c0.809,0.952,1.571,2.095,1.571,2.476C101.838,19.877,101.171,20.068,99.885,20.354"/>
		<path fill="#003262" d="M110.373,33.453c-0.715,0-1.762-0.096-2.62-0.096c-1.619,0-4.144,0.096-4.811,0.096
			c-1.096,0-1.191-0.096-1.191-0.477c0-0.334,0.048-0.62,1.191-0.62c1.953,0,2.763,0.048,2.763-0.81V5.302c0-3-0.286-3-2.429-3
			c-0.857,0-1.334-0.095-1.334-0.62c0-0.571,0.381-0.523,1.191-0.571c3.715-0.238,5.525-1.048,5.811-1.048
			c0.238,0,0.476,0.238,0.476,0.762c0,0.572-0.237,2.287-0.237,3.716c0,18.147-0.238,21.91-0.238,23.292
			c0,3.953,0.333,4.477,1.19,4.477c2.381,0,2.287,0.285,2.287,0.668C112.421,33.453,112.087,33.453,110.373,33.453"/>
		<path fill="#003262" d="M120.022,14.639c-3.619,0-4.763,5.429-4.763,6.096c0,0.239,0,0.286,0.571,0.286
			c2.478,0,5.049-0.62,8.623-1.191c0.523-0.095,0.572-0.19,0.572-0.476C125.025,18.163,122.214,14.639,120.022,14.639
			 M127.358,20.354c-1.238,0.286-6.002,1.334-11.432,1.667c-0.762,0.048-0.906,0.286-0.906,1.381c0,6.573,5.097,8.335,8.717,8.335
			c3.144,0,4.858-1.143,5.144-1.143c0.238,0,0.381,0.285,0.381,0.381c0,0.237-4.048,3.239-7.906,3.239
			c-3.906,0-9.717-1.906-9.717-9.859c0-6.717,4.526-10.718,8.86-10.718c2.478,0,5.526,1.573,7.24,3.573
			c0.81,0.952,1.571,2.095,1.571,2.476C129.311,19.877,128.644,20.068,127.358,20.354"/>
		<path fill="#003262" d="M148.935,15.257c-1.048,0-3.144,5.716-6.906,14.861c-3.002,7.287-5.145,11.146-6.668,14.29
			c-0.523,1.048-1.096,1.095-2.144,1.238c-1.43,0.19-1.763,0.571-2.811,0.571c-0.811,0-1.286-0.238-1.286-0.477
			c0-0.285,2.238-0.571,3.858-2.619c1.715-2.144,5.811-7.765,5.811-9.192c0-0.524-3.81-9.337-6.43-15.529
			c-1.191-2.857-1.525-3.096-2.382-3.096c-0.953,0-1-0.047-1-0.476c0-0.428,0.143-0.667,1-0.667c1.333,0,1.667,0.095,2.811,0.095
			c1.333,0,3-0.143,4.524-0.143c1,0,1.19,0.19,1.19,0.715c0,0.429-0.19,0.476-1.19,0.476c-1.143,0-1.429,0.286-1.429,1.381
			c0,1.381,1.238,3.048,4.096,10.384c0.382,1,0.953,1.81,1.144,1.81c0.333,0,0.62-0.667,1.381-2.906
			c1.144-3.429,2.858-8.383,2.858-9.049c0-1.429,0-1.714-1.619-1.714c-1.476,0-1.667,0-1.667-0.477c0-0.62,0.143-0.62,1-0.62
			c1.286,0,2.143,0.095,3.43,0.095c0.715,0,2-0.19,2.667-0.19c0.762,0,1,0.047,1,0.572
			C150.173,15.019,149.506,15.257,148.935,15.257"/>
	</g>
</g>
</svg>
