<?xml version="1.0" standalone="no"?>
<!DOCTYPE svg PUBLIC "-//W3C//DTD SVG 20010904//EN"
 "http://www.w3.org/TR/2001/REC-SVG-20010904/DTD/svg10.dtd">
<svg version="1.0" xmlns="http://www.w3.org/2000/svg"
 width="1500.000000pt" height="1500.000000pt" viewBox="0 0 1500.000000 1500.000000"
 preserveAspectRatio="xMidYMid meet">

<g transform="translate(0.000000,1500.000000) scale(0.100000,-0.100000)"
fill="#FFFFFF" stroke="000000">
<path d="M7370 12564 c1 -27 -7 -383 -17 -791 -9 -408 -15 -744 -13 -746 3 -3
80 -8 173 -11 l167 -7 1 128 c0 70 8 427 18 793 9 366 15 667 13 670 -2 3 -80
7 -173 9 l-169 3 0 -48z"/>
<path d="M6220 12449 c-199 -54 -280 -83 -276 -98 3 -9 87 -356 187 -771 100
-415 185 -758 188 -762 4 -4 47 7 96 26 50 18 120 41 158 51 37 10 67 22 67
26 0 8 -309 1287 -355 1472 -10 37 -20 67 -24 66 -3 0 -22 -5 -41 -10z"/>
<path d="M8806 12383 c-3 -10 -102 -347 -220 -750 -119 -403 -216 -739 -216
-747 0 -9 29 -24 83 -42 45 -14 111 -40 146 -55 35 -16 69 -29 75 -29 15 0
461 1519 450 1530 -10 10 -288 110 -304 110 -5 0 -11 -8 -14 -17z"/>
<path d="M4807 11798 c-75 -51 -137 -97 -137 -101 0 -6 636 -1175 742 -1364
l29 -51 86 69 c48 38 108 84 135 102 26 17 48 35 48 38 0 7 -749 1381 -759
1392 -4 4 -69 -35 -144 -85z"/>
<path d="M9686 11088 l-416 -681 22 -16 c13 -8 72 -58 132 -109 59 -52 111
-90 116 -85 22 25 823 1347 824 1360 1 15 -170 158 -235 197 l-27 16 -416
-682z"/>
<path d="M3637 10703 c-41 -57 -147 -221 -147 -228 0 -11 1324 -887 1328 -877
1 5 43 69 93 142 49 73 89 134 87 135 -16 13 -1303 868 -1313 871 -7 3 -28
-16 -48 -43z"/>
<path d="M10657 10205 c-368 -227 -671 -416 -674 -419 -3 -3 24 -45 59 -93 36
-48 80 -110 97 -136 18 -27 38 -46 44 -44 15 5 1329 816 1339 826 9 8 -173
281 -187 280 -5 0 -311 -186 -678 -414z"/>
<path d="M7215 10554 c-329 -38 -554 -93 -790 -194 -333 -142 -572 -305 -830
-564 -342 -342 -562 -743 -637 -1154 -28 -155 -30 -450 -4 -627 55 -374 173
-674 512 -1302 223 -413 567 -1131 625 -1305 l39 -116 15 -294 c9 -161 22
-327 30 -368 48 -240 144 -373 310 -426 74 -24 100 -27 345 -34 146 -5 427
-12 625 -15 263 -6 371 -11 401 -21 32 -11 54 -12 94 -4 29 6 73 10 97 10 68
0 183 29 239 61 109 61 191 186 234 354 23 90 42 235 65 498 13 148 21 192 46
262 36 99 139 305 272 542 52 92 140 251 195 353 55 102 171 304 259 450 183
305 276 472 344 617 113 242 190 490 225 728 21 145 24 433 5 550 -66 414
-259 803 -574 1156 -410 460 -998 760 -1636 834 -112 13 -420 18 -506 9z m730
-509 l40 -13 -35 0 c-19 0 -57 8 -85 19 l-50 19 45 -6 c24 -4 62 -12 85 -19z
m-447 0 c53 -8 138 -23 187 -33 79 -17 93 -18 118 -5 26 13 32 12 83 -18 53
-30 63 -32 192 -38 133 -6 139 -8 202 -42 36 -20 97 -46 135 -59 39 -12 88
-32 110 -43 95 -47 300 -201 365 -273 l25 -27 -55 31 c-89 50 -208 99 -317
130 -63 19 -149 54 -225 95 -153 81 -369 143 -563 162 -33 4 -105 13 -160 20
-55 8 -168 16 -252 20 -147 5 -155 5 -260 -25 -59 -16 -121 -30 -137 -30 -30
0 -259 -71 -374 -116 -34 -13 -70 -24 -80 -24 -9 0 -37 -14 -62 -30 -25 -17
-83 -42 -130 -56 -47 -15 -132 -48 -189 -75 -115 -54 -114 -46 4 46 119 92
203 146 244 157 20 5 47 20 61 33 33 31 117 68 137 61 9 -4 31 3 50 14 19 11
51 20 71 20 21 0 56 11 81 25 31 18 58 25 97 25 35 0 78 9 121 27 54 21 92 28
183 33 196 11 237 10 338 -5z m150 -170 c183 -23 316 -51 459 -96 106 -34 139
-50 190 -90 39 -31 73 -49 89 -49 15 0 51 -14 82 -32 30 -17 75 -35 99 -39 54
-10 266 -113 430 -209 118 -68 125 -75 182 -155 172 -242 276 -503 307 -769 5
-43 4 -57 -5 -52 -6 4 -11 14 -11 22 0 23 -226 241 -320 309 -46 33 -102 76
-124 96 -23 20 -61 47 -86 59 -25 12 -73 42 -107 65 -33 24 -72 46 -85 50 -12
4 -48 20 -79 35 -31 15 -73 33 -95 40 -21 7 -50 23 -64 36 -18 16 -43 25 -85
30 -33 4 -72 13 -87 20 -15 8 -45 14 -66 14 -22 0 -73 14 -113 30 -63 26 -257
86 -394 123 -22 6 -125 11 -230 11 -212 1 -278 -10 -335 -54 -20 -15 -59 -32
-92 -38 -31 -6 -87 -26 -125 -45 -37 -19 -79 -38 -93 -42 -14 -4 -46 -16 -72
-27 -38 -16 -48 -25 -48 -44 0 -40 66 -40 106 1 9 8 30 15 47 15 18 0 50 11
72 25 22 13 55 25 74 25 26 0 47 11 83 41 46 39 51 40 111 38 37 -2 72 2 86
10 28 16 437 9 468 -7 10 -6 61 -22 113 -37 52 -15 119 -37 150 -50 30 -13 84
-29 120 -36 36 -7 76 -20 90 -30 19 -12 39 -15 82 -11 41 3 64 0 80 -10 13 -8
68 -35 123 -58 55 -24 134 -65 175 -90 41 -26 115 -71 163 -101 51 -31 95 -66
103 -81 8 -15 25 -29 43 -33 47 -10 122 -63 183 -130 32 -34 80 -79 107 -100
27 -21 52 -47 55 -59 4 -12 24 -33 46 -48 38 -27 40 -30 40 -83 0 -30 -3 -55
-6 -55 -3 0 -41 32 -84 71 -43 39 -92 80 -108 92 -17 12 -37 34 -43 50 -12 28
-93 103 -209 194 -79 61 -278 193 -292 193 -6 0 -38 20 -72 44 -33 24 -75 46
-92 50 -17 4 -50 27 -74 51 -33 34 -52 45 -74 45 -17 0 -50 7 -73 16 -24 9
-46 14 -49 11 -18 -18 22 -52 156 -130 93 -56 159 -102 175 -123 14 -19 34
-34 44 -34 31 0 265 -117 291 -146 14 -14 84 -75 156 -135 72 -59 142 -126
157 -147 14 -22 50 -66 79 -98 84 -91 103 -123 99 -163 -2 -20 -5 -39 -7 -43
-11 -17 -69 35 -110 97 -67 102 -185 234 -287 322 -123 106 -175 140 -257 168
-75 25 -146 72 -255 166 -38 33 -104 77 -145 98 -41 21 -100 59 -131 85 -84
69 -241 138 -374 164 -182 36 -394 51 -502 36 -190 -26 -351 -73 -503 -149
-58 -29 -123 -58 -145 -65 -22 -7 -69 -30 -105 -50 -36 -21 -121 -66 -189
-100 -69 -34 -167 -94 -220 -134 -53 -40 -123 -91 -156 -113 -69 -48 -314
-287 -394 -386 -40 -49 -63 -68 -86 -73 -22 -4 -39 -18 -60 -48 -24 -36 -92
-96 -108 -96 -3 0 -7 12 -10 26 -3 20 5 39 34 78 21 28 39 54 39 58 0 4 27 21
60 38 49 25 60 35 60 55 0 14 4 25 10 25 5 0 33 22 61 50 27 27 66 55 85 62
20 7 34 19 34 28 0 19 58 110 70 110 4 0 30 23 56 50 26 28 54 50 61 50 7 0
23 11 35 26 13 14 47 41 78 62 30 20 81 60 112 90 41 39 69 57 100 63 23 6 57
21 75 35 18 14 57 36 86 49 29 12 59 30 66 39 8 9 39 23 70 32 80 23 121 50
121 80 0 14 -7 27 -15 31 -23 8 -153 -40 -291 -108 -66 -32 -125 -59 -130 -59
-6 0 -21 -12 -35 -26 -13 -14 -51 -42 -84 -62 -57 -34 -167 -122 -316 -250
-36 -31 -76 -76 -89 -100 -13 -24 -33 -48 -44 -54 -11 -6 -45 -36 -76 -67 -30
-31 -101 -100 -157 -153 l-103 -97 0 44 c0 25 5 45 10 45 6 0 20 16 32 35 11
20 38 45 59 56 33 16 39 24 39 52 0 31 3 33 71 57 57 19 76 31 95 59 13 20 24
45 24 56 0 48 64 128 163 204 54 42 107 90 118 108 19 30 129 102 204 134 17
7 43 24 59 37 37 30 146 84 213 106 46 15 54 22 62 52 8 27 6 41 -7 65 -21 36
-40 34 -62 -6 -19 -35 -74 -75 -102 -75 -11 0 -72 -27 -137 -60 -65 -33 -125
-60 -134 -60 -10 0 -17 -6 -17 -13 0 -17 -112 -125 -250 -242 -58 -48 -124
-106 -146 -128 -36 -34 -44 -37 -63 -28 -34 19 -25 46 28 85 26 19 59 53 73
74 18 27 38 42 68 52 49 16 93 65 117 130 22 59 33 71 126 136 84 60 175 104
273 135 41 13 67 27 78 43 11 18 29 27 63 32 58 8 147 49 201 92 26 21 51 32
73 32 19 0 42 8 54 20 27 26 150 60 214 60 40 0 51 4 64 24 12 18 28 25 70 30
31 3 113 20 184 37 144 35 207 35 343 -1 41 -11 100 -20 132 -20 42 0 77 -9
136 -34 44 -19 102 -38 129 -41 26 -4 72 -15 101 -26 29 -10 78 -19 108 -19
72 0 209 -35 254 -64 19 -13 52 -26 73 -29 22 -3 68 -26 105 -51 43 -28 83
-46 111 -50 34 -5 56 -18 97 -55 35 -32 80 -60 131 -81 117 -48 170 -80 199
-117 30 -39 54 -43 54 -9 0 61 -62 111 -310 251 -47 26 -105 62 -130 80 -56
40 -279 145 -382 181 -50 17 -79 33 -83 44 -3 10 -26 27 -51 37 -30 12 -47 26
-51 41 -7 29 -63 72 -92 72 -14 0 -25 -7 -28 -20 -7 -25 -6 -26 -69 11 -57 32
-106 48 -329 106 -138 35 -142 36 -345 36 -165 1 -216 -3 -262 -16 -32 -10
-69 -15 -82 -11 -16 4 -36 -2 -62 -20 -22 -13 -67 -30 -101 -36 -73 -13 -142
-38 -302 -109 -62 -28 -117 -51 -122 -51 -19 0 -274 -112 -331 -145 -33 -20
-80 -41 -105 -48 -25 -6 -66 -30 -95 -54 -27 -24 -55 -43 -63 -43 -13 0 -219
-152 -267 -198 -16 -14 -28 -35 -28 -46 0 -10 -7 -27 -16 -37 -9 -10 -14 -25
-12 -33 2 -12 31 5 113 64 61 44 130 90 155 102 25 11 63 35 85 53 22 17 67
46 100 64 33 18 70 46 82 61 16 20 35 29 69 34 35 4 57 16 89 45 51 47 105 76
171 92 27 6 63 20 80 30 18 11 66 28 109 39 43 11 89 30 105 44 16 13 48 27
71 31 23 4 74 18 112 31 39 13 86 24 104 24 19 0 87 14 151 31 151 40 281 48
418 25 252 -43 656 -166 694 -211 12 -14 11 -18 -1 -26 -23 -14 -43 -11 -120
22 -41 17 -90 35 -109 40 -58 15 -191 41 -250 49 -30 4 -102 19 -159 34 -97
25 -112 26 -245 20 -113 -5 -147 -10 -173 -26 -20 -12 -40 -17 -56 -13 -15 4
-39 -1 -63 -13 -37 -18 -214 -76 -314 -102 -24 -7 -65 -22 -90 -35 -25 -12
-63 -25 -85 -29 -44 -8 -147 -62 -194 -102 -17 -14 -38 -24 -48 -23 -27 5
-327 -148 -376 -191 -50 -43 -191 -120 -264 -144 -28 -10 -78 -34 -111 -56
-33 -21 -74 -41 -92 -45 l-33 -7 64 121 c35 67 89 156 120 199 32 42 65 87 74
99 18 26 123 98 157 108 13 4 70 41 128 83 93 67 114 78 181 92 41 9 89 26
106 38 17 12 66 30 109 40 44 11 160 53 259 94 170 71 335 119 455 131 99 10
388 5 498 -8z m71 -810 c122 -14 165 -24 283 -65 144 -51 213 -87 333 -175 39
-28 102 -69 140 -90 39 -22 95 -62 125 -90 30 -27 76 -67 103 -89 26 -21 63
-65 83 -97 19 -33 58 -78 85 -101 43 -36 142 -164 249 -322 18 -27 64 -85 102
-129 75 -87 109 -140 132 -205 14 -40 14 -46 -7 -94 l-23 -52 -23 55 c-13 30
-36 72 -51 94 -15 22 -38 65 -52 97 -26 56 -231 333 -400 542 -91 111 -154
166 -413 365 -196 150 -372 224 -605 256 -63 8 -146 22 -185 31 -107 24 -232
14 -390 -30 -140 -39 -218 -74 -360 -159 -49 -30 -118 -65 -153 -78 -38 -14
-92 -47 -135 -83 -111 -90 -152 -115 -228 -141 -39 -14 -100 -46 -136 -71 -37
-26 -210 -192 -385 -368 -339 -342 -330 -335 -343 -255 -6 35 -3 40 45 85 29
27 74 63 100 79 28 17 75 63 108 105 54 68 117 129 195 187 16 12 38 37 49 55
30 50 108 127 153 150 22 11 61 38 86 59 26 21 71 50 100 64 30 13 77 38 104
56 103 64 224 131 350 193 72 35 159 83 195 107 44 28 89 48 140 60 41 10 97
25 124 33 27 9 83 16 125 17 42 0 99 7 126 14 28 7 64 12 80 10 17 -2 95 -11
174 -20z m-1879 -106 c0 -23 -22 -49 -67 -77 -60 -37 -184 -162 -201 -204 -8
-18 -43 -66 -80 -107 -94 -108 -93 -106 -86 -124 5 -15 8 -15 37 0 18 8 53 31
78 49 26 19 60 37 76 40 24 5 31 2 41 -21 16 -34 9 -43 -44 -67 -55 -24 -159
-110 -185 -151 l-19 -32 0 95 c0 97 12 205 31 273 7 26 15 37 28 37 24 0 39
19 47 58 6 28 4 32 -15 32 -24 0 -24 0 -12 33 7 19 15 23 34 20 30 -6 93 25
131 66 28 29 34 31 77 25 43 -6 48 -4 54 17 4 13 12 30 17 37 13 15 58 16 58
1z m1805 -43 c66 -9 154 -28 195 -41 41 -13 94 -27 118 -30 65 -10 158 -51
226 -100 34 -23 90 -57 126 -75 88 -44 253 -162 290 -208 16 -20 68 -70 114
-111 73 -64 88 -82 107 -134 16 -43 42 -82 89 -134 37 -40 89 -112 116 -160
27 -48 76 -126 110 -173 33 -47 82 -129 107 -183 l46 -99 -42 -81 -42 -82 -6
75 c-4 55 -14 94 -38 145 -18 39 -46 103 -62 144 -17 41 -43 91 -58 110 -15
20 -40 59 -56 86 -15 28 -41 66 -56 86 -16 20 -49 69 -73 110 -138 226 -425
477 -699 612 -205 101 -360 149 -565 173 -121 14 -138 14 -179 0 -25 -9 -76
-19 -112 -22 -49 -5 -88 -18 -151 -49 -47 -23 -114 -53 -150 -66 -68 -24 -320
-174 -392 -232 -24 -19 -57 -41 -73 -50 -17 -8 -46 -37 -65 -64 -39 -55 -356
-398 -539 -583 -68 -69 -144 -156 -169 -195 -81 -127 -127 -195 -133 -195 -3
0 -13 18 -21 39 l-16 39 70 83 c39 46 82 109 97 140 15 30 45 72 68 93 23 20
56 59 73 86 18 27 55 66 83 87 85 61 196 173 248 249 26 40 64 82 84 94 19 12
50 43 67 68 17 26 57 76 89 112 44 50 69 69 108 84 33 11 63 32 84 56 20 24
45 40 67 45 41 9 286 129 315 155 11 10 48 22 82 28 37 6 95 28 140 51 77 40
79 41 168 37 50 -2 144 -11 210 -20z m-27 -138 c9 -9 8 -16 -5 -30 -12 -13
-31 -18 -73 -18 -84 0 -195 -24 -365 -78 -164 -53 -215 -81 -338 -186 -43 -36
-93 -74 -110 -83 -67 -34 -372 -328 -403 -388 -9 -16 -33 -48 -54 -70 -21 -22
-43 -58 -50 -80 -7 -22 -30 -74 -50 -116 -31 -61 -90 -196 -90 -205 0 -11 49
-9 76 3 35 17 36 19 104 193 20 52 55 123 77 157 69 106 311 367 393 423 30
21 69 52 85 70 51 55 141 118 235 165 133 67 338 134 445 146 50 6 117 17 150
25 85 20 179 17 245 -7 30 -11 87 -28 125 -39 110 -29 177 -59 215 -95 19 -18
62 -53 96 -76 139 -99 313 -260 364 -336 27 -40 64 -86 81 -101 18 -14 42 -49
54 -77 13 -27 37 -63 55 -80 103 -96 225 -377 253 -580 15 -106 15 -110 -6
-149 l-21 -41 -7 30 c-4 17 -7 61 -8 98 -1 50 -7 80 -25 116 -14 26 -28 76
-31 112 -6 53 -13 70 -40 99 -18 19 -35 51 -39 70 -4 21 -28 62 -62 104 -30
38 -66 92 -81 120 -14 28 -35 65 -48 81 -12 17 -30 45 -39 63 -28 55 -165 220
-200 240 -17 10 -61 46 -97 79 -35 32 -80 70 -99 83 -19 13 -53 39 -75 58 -83
70 -218 120 -418 156 -59 11 -107 12 -202 6 -137 -10 -187 -21 -255 -54 -25
-13 -72 -28 -105 -35 -116 -24 -249 -102 -406 -238 -31 -26 -100 -81 -153
-122 -93 -71 -213 -194 -251 -256 -10 -16 -52 -81 -93 -143 -60 -90 -76 -125
-88 -179 -13 -62 -19 -73 -78 -133 -88 -90 -123 -146 -161 -258 -48 -139 -67
-176 -103 -207 -18 -15 -41 -44 -51 -63 l-18 -36 -18 33 c-16 33 -16 34 8 60
34 36 87 140 87 168 0 13 15 44 33 68 17 24 44 65 59 92 15 26 42 67 59 90 35
46 32 63 -12 63 -40 0 -87 -52 -141 -155 -22 -44 -60 -109 -84 -145 -24 -36
-49 -80 -55 -99 l-12 -34 -22 44 -23 44 26 45 c14 25 42 64 62 87 20 23 78
120 129 215 51 95 113 198 137 230 24 31 44 64 44 72 0 24 -27 30 -53 13 -49
-32 -188 -234 -278 -404 -49 -95 -94 -175 -99 -178 -5 -3 -18 12 -29 34 l-21
39 33 52 c17 28 63 94 101 148 37 53 78 116 90 139 30 59 116 145 201 203 40
27 82 61 93 74 11 14 51 61 90 103 39 43 84 96 100 118 16 22 39 49 52 60 12
11 40 52 61 90 21 39 47 80 57 91 9 12 76 52 149 89 104 53 145 80 192 128 58
57 66 61 152 84 50 13 134 40 187 60 54 20 113 40 132 44 61 12 245 10 258 -3z
m295 -228 c56 -23 158 -72 227 -110 103 -57 139 -84 206 -152 78 -79 84 -89
127 -198 24 -63 55 -144 67 -180 13 -36 36 -83 51 -106 43 -64 71 -188 71
-324 1 -223 -1 -277 -16 -372 -28 -174 -55 -269 -107 -374 -45 -91 -62 -113
-164 -217 -63 -64 -135 -128 -161 -143 -43 -26 -55 -28 -158 -28 -105 0 -119
2 -244 44 l-133 43 -66 91 c-37 50 -87 116 -113 146 -145 171 -250 362 -250
455 0 53 20 40 49 -30 13 -33 44 -91 71 -130 26 -38 54 -84 64 -102 20 -41 84
-129 116 -162 13 -14 46 -51 71 -82 47 -56 198 -172 254 -194 45 -18 219 -27
274 -13 72 17 179 103 244 195 30 43 72 96 94 118 33 34 42 54 60 130 52 215
65 341 59 568 -7 271 -17 310 -141 563 -93 190 -94 191 -183 275 -101 96 -227
168 -372 213 -133 42 -199 43 -376 7 -221 -44 -320 -80 -364 -129 -19 -22 -59
-54 -88 -72 -61 -37 -160 -161 -264 -331 -37 -60 -85 -131 -107 -157 -59 -69
-98 -168 -128 -317 -33 -169 -40 -318 -18 -422 9 -43 27 -143 41 -223 32 -186
84 -345 134 -408 20 -26 50 -70 66 -99 59 -106 176 -242 315 -365 69 -60 80
-67 132 -73 46 -6 73 -18 135 -59 58 -39 99 -57 167 -75 50 -13 110 -33 135
-43 25 -11 81 -31 125 -45 69 -22 91 -25 160 -19 118 9 218 38 260 75 19 17
49 38 65 46 24 13 80 96 80 119 0 3 -19 -8 -42 -23 -113 -76 -272 -123 -413
-124 -83 0 -114 4 -185 28 -47 15 -105 38 -130 50 -25 12 -68 27 -96 33 -89
19 -183 83 -426 290 -37 31 -87 86 -111 122 -24 36 -68 101 -98 145 -71 103
-94 149 -103 206 -4 25 -27 106 -52 180 -24 74 -49 154 -55 179 -17 72 -14
306 5 365 9 28 16 77 16 110 0 79 25 217 46 258 9 17 28 46 40 63 13 17 24 38
24 46 0 8 12 25 26 39 14 13 35 39 47 59 11 19 40 58 62 85 23 28 63 83 89
122 54 82 93 116 185 163 35 17 88 48 117 67 67 44 243 83 378 83 129 0 290
-54 411 -138 95 -66 296 -356 348 -502 35 -99 56 -236 58 -380 1 -61 -2 -76
-24 -108 -29 -41 -53 -94 -73 -164 -15 -48 -85 -180 -136 -256 -16 -23 -59
-63 -96 -87 -55 -37 -75 -45 -112 -45 -25 0 -54 6 -65 14 -11 7 -45 21 -76 30
-70 20 -115 66 -214 219 -39 60 -94 145 -124 190 -104 156 -151 283 -151 410
0 34 -5 81 -10 104 -8 34 -6 49 10 85 22 50 55 85 64 69 4 -5 -1 -42 -9 -80
-16 -69 -16 -74 10 -208 34 -172 46 -204 125 -328 189 -299 210 -327 280 -370
89 -54 162 -77 217 -69 74 11 108 39 128 104 9 30 34 82 55 115 20 33 43 83
50 110 7 28 29 88 49 135 35 84 36 87 35 225 0 117 -3 153 -23 220 -31 106
-83 207 -135 264 -23 25 -64 77 -90 114 -80 113 -176 169 -376 217 -106 25
-146 31 -190 26 -98 -12 -278 -65 -341 -102 -33 -20 -85 -47 -116 -60 -67 -30
-69 -32 -132 -154 -64 -125 -66 -132 -95 -366 -26 -209 -26 -247 4 -444 40
-260 161 -543 308 -721 154 -186 204 -228 358 -305 118 -58 154 -71 239 -86
55 -9 131 -17 169 -18 72 0 181 23 206 44 34 30 181 118 187 113 3 -3 -9 -25
-27 -47 -26 -33 -59 -54 -157 -102 -211 -102 -289 -112 -414 -54 -30 14 -108
44 -175 66 l-121 42 -155 151 c-144 141 -161 163 -246 300 -120 192 -161 277
-205 417 -57 186 -62 217 -59 418 2 180 2 183 32 241 19 38 30 77 32 112 3 54
3 54 -26 52 -39 -3 -42 -7 -77 -99 -35 -93 -65 -245 -79 -405 -23 -258 -4
-433 64 -604 20 -49 49 -121 64 -160 15 -38 37 -83 49 -100 12 -16 47 -70 78
-120 88 -139 118 -170 274 -287 150 -112 307 -198 400 -219 25 -6 99 -26 163
-45 l117 -36 63 17 c35 10 80 21 100 26 21 5 67 25 104 44 36 19 72 35 80 35
20 0 94 38 94 49 0 4 21 37 48 73 26 35 55 75 65 89 15 20 15 19 -1 -11 -109
-198 -146 -266 -177 -330 -33 -66 -42 -78 -83 -97 -81 -38 -184 -63 -263 -63
-127 1 -274 18 -340 40 -95 32 -277 118 -339 161 -30 21 -64 39 -75 41 -17 3
-20 -2 -18 -30 2 -48 37 -82 83 -82 26 0 43 -7 61 -26 53 -58 245 -131 399
-154 41 -6 131 -11 200 -12 69 0 138 -5 153 -9 17 -5 45 -3 73 6 44 13 45 13
38 -8 -11 -37 -42 -63 -112 -95 -87 -40 -164 -52 -339 -52 -137 0 -144 1 -231
34 -154 59 -453 188 -557 241 -204 104 -430 270 -494 365 -14 19 -43 56 -65
81 -73 83 -126 192 -153 314 -20 94 -25 148 -30 375 l-6 265 27 91 c14 50 35
156 46 237 12 89 26 160 38 184 11 21 27 62 36 90 10 29 48 95 84 148 37 52
76 108 87 125 87 128 213 255 233 235 17 -17 -86 -181 -186 -297 -56 -64 -99
-146 -177 -338 -50 -122 -56 -142 -64 -234 -5 -50 -16 -127 -25 -171 -29 -145
-36 -267 -24 -429 6 -83 17 -166 24 -185 8 -18 14 -50 14 -70 0 -70 81 -241
160 -338 85 -103 126 -141 254 -233 65 -47 141 -103 169 -125 89 -72 167 -119
179 -107 21 21 -7 56 -120 147 -139 111 -364 330 -413 400 -19 28 -43 70 -53
95 -10 25 -34 71 -54 103 -36 59 -35 57 -72 297 -14 95 -13 363 2 378 7 7 15
12 19 12 4 0 9 -55 12 -122 15 -304 54 -454 171 -646 20 -33 36 -64 36 -69 0
-4 13 -24 28 -43 16 -19 46 -57 67 -85 20 -27 88 -95 149 -150 61 -55 129
-119 151 -143 21 -24 55 -52 75 -62 28 -14 41 -30 55 -65 13 -36 25 -50 51
-61 19 -8 56 -27 82 -43 26 -16 65 -32 86 -36 22 -3 64 -23 95 -43 88 -57 191
-77 386 -75 177 1 215 9 215 47 0 31 -30 39 -88 24 -28 -7 -90 -9 -171 -5
-109 6 -142 12 -246 45 -66 22 -142 53 -170 71 -27 17 -77 45 -110 61 -82 41
-117 74 -154 148 -23 45 -45 72 -77 95 -59 41 -267 282 -311 360 -18 33 -48
78 -65 100 -30 37 -57 104 -114 277 -25 77 -64 303 -64 372 0 21 -11 71 -25
110 -29 82 -31 121 -10 171 8 20 15 56 15 81 0 27 12 72 30 115 17 39 33 92
37 118 3 27 14 60 24 74 10 15 27 46 38 70 10 24 48 77 85 118 36 40 66 78 66
83 0 21 79 176 119 233 41 58 114 127 216 205 31 23 97 55 175 83 217 80 281
93 503 105 15 1 73 -16 130 -38z m933 -40 c15 -6 54 -34 86 -63 190 -167 294
-278 435 -468 l72 -97 -13 -41 -12 -42 -21 23 c-11 13 -29 37 -39 53 -51 83
-226 289 -376 442 -92 95 -168 180 -168 188 0 18 1 18 36 5z m-2486 -48 c0
-19 -65 -104 -105 -140 -24 -20 -66 -65 -93 -98 -28 -34 -108 -113 -179 -177
-137 -124 -266 -265 -324 -356 -20 -31 -52 -74 -71 -95 l-34 -40 -17 42 -17
42 68 78 c37 43 84 93 105 112 21 18 45 47 54 64 22 44 73 95 110 111 21 9 33
22 38 43 4 22 24 42 77 78 43 30 76 61 83 79 7 16 46 54 86 85 41 31 91 78
111 105 36 47 70 74 96 75 6 0 12 -4 12 -8z m1480 -223 c60 -17 120 -43 144
-60 145 -105 167 -127 244 -237 71 -101 83 -124 112 -223 35 -122 36 -131 5
-319 l-17 -105 -51 -47 c-28 -27 -55 -48 -59 -48 -24 0 -17 36 16 86 34 51 38
63 48 168 10 109 9 118 -16 216 -34 130 -91 240 -168 325 -101 110 -202 163
-359 189 -75 12 -79 12 -205 -24 -153 -43 -214 -73 -270 -132 -96 -99 -145
-273 -123 -436 5 -42 14 -160 19 -262 5 -106 16 -208 25 -240 67 -242 106
-329 176 -395 17 -17 58 -70 91 -120 159 -237 281 -301 608 -322 105 -6 128 1
253 81 77 49 255 240 282 301 21 47 88 254 116 355 22 81 29 620 9 715 -16 79
-109 282 -169 370 -55 81 -55 111 0 68 47 -36 92 -98 120 -164 12 -30 38 -80
57 -112 35 -58 50 -115 51 -195 1 -24 10 -65 22 -91 19 -46 20 -51 5 -107 -9
-34 -13 -76 -9 -96 3 -21 0 -65 -6 -100 -7 -35 -13 -115 -15 -178 -2 -86 -10
-141 -30 -218 -42 -163 -69 -223 -157 -352 -66 -98 -95 -130 -153 -174 -39
-29 -86 -61 -103 -70 -18 -9 -49 -30 -68 -47 -40 -35 -105 -52 -241 -63 -65
-6 -97 -3 -160 13 -201 52 -278 99 -383 236 -25 33 -69 85 -98 117 -164 179
-281 422 -312 648 -16 114 -7 623 12 681 20 63 83 156 128 188 20 14 43 37 51
51 21 36 232 138 306 149 109 16 165 12 272 -20z m-29 -153 c63 -18 152 -79
216 -149 46 -49 131 -217 158 -311 15 -51 16 -70 5 -155 -10 -84 -16 -103 -45
-143 -33 -45 -35 -46 -72 -38 -21 5 -42 17 -48 27 -5 9 -47 54 -93 100 -69 69
-90 99 -132 184 -51 103 -67 157 -56 184 9 26 43 1 56 -42 7 -21 31 -63 55
-93 23 -30 50 -70 59 -89 10 -18 44 -66 75 -105 32 -39 61 -79 64 -88 4 -10
16 -18 27 -18 33 0 75 99 75 176 0 69 -21 123 -91 239 -24 39 -46 82 -49 98
-8 32 -132 120 -193 137 -56 15 -187 12 -229 -5 -21 -9 -67 -23 -105 -31 -55
-13 -73 -22 -99 -52 -69 -78 -97 -196 -69 -292 6 -19 19 -101 29 -181 13 -97
28 -168 45 -209 37 -92 133 -260 171 -300 18 -19 41 -50 51 -67 10 -18 21 -33
25 -33 4 0 40 -30 81 -67 43 -39 105 -83 144 -102 38 -19 81 -42 96 -52 23
-17 35 -18 116 -10 126 13 153 27 195 98 19 33 66 103 105 156 62 85 71 105
81 164 27 159 91 256 78 119 -13 -137 -79 -277 -190 -403 -32 -37 -64 -80 -72
-97 -35 -79 -95 -106 -235 -106 -97 0 -141 14 -215 70 -22 17 -60 41 -85 54
-68 37 -221 198 -277 291 -90 150 -132 246 -149 334 -8 47 -22 97 -30 113 -20
39 -47 280 -39 357 7 78 38 155 79 199 53 58 190 118 331 146 76 15 74 15 156
-8z m-116 -127 c4 -5 0 -18 -9 -28 -22 -24 -23 -205 -2 -253 8 -18 18 -49 21
-70 3 -20 19 -61 35 -92 17 -31 30 -67 30 -80 0 -32 35 -128 67 -182 28 -50
193 -201 228 -210 42 -10 178 78 226 147 24 35 34 17 19 -36 -9 -34 -24 -54
-54 -77 -22 -18 -57 -46 -77 -64 -59 -51 -84 -52 -181 -4 -98 50 -141 87 -175
155 -14 28 -46 76 -70 108 -48 62 -80 134 -114 256 -12 42 -30 93 -40 113 -34
66 -16 261 28 311 18 19 58 23 68 6z m196 -91 c96 -92 215 -312 196 -362 -8
-19 -37 -21 -37 -3 0 8 -40 74 -88 148 -92 140 -143 189 -194 189 -36 0 -42
13 -23 49 17 34 43 52 65 46 8 -3 45 -33 81 -67z m1029 -283 c22 -61 43 -126
46 -145 4 -19 18 -57 31 -86 31 -67 50 -254 33 -323 -11 -45 -67 -157 -75
-149 -2 2 0 33 5 68 5 36 10 116 10 178 0 104 -3 119 -33 200 -65 168 -102
339 -82 372 12 19 23 0 65 -115z m-1046 -176 c23 -38 143 -162 173 -178 12 -6
33 -11 46 -11 32 0 51 -23 43 -55 -5 -20 -13 -25 -37 -25 -38 0 -106 34 -113
58 -4 10 -27 33 -52 50 -47 34 -76 84 -89 155 -9 45 4 48 29 6z m-1672 -127
c-11 -37 -27 -101 -37 -142 -9 -41 -21 -80 -26 -86 -23 -28 -62 -168 -74 -265
-7 -58 -17 -123 -21 -144 l-7 -38 -17 34 c-10 19 -16 37 -14 41 3 4 9 42 14
85 24 207 68 357 166 568 23 49 29 56 32 37 2 -13 -5 -53 -16 -90z m1308 -30
c0 -27 72 -168 111 -219 39 -52 63 -123 41 -123 -19 0 -102 115 -145 200 -23
47 -57 109 -74 139 -32 52 -41 90 -26 104 8 9 92 -83 93 -101z m1363 56 c3
-13 11 -89 18 -170 10 -120 10 -163 0 -228 -7 -44 -11 -86 -8 -94 3 -8 -3 -26
-13 -39 -11 -13 -46 -83 -78 -155 -99 -217 -170 -334 -285 -463 -147 -167
-175 -187 -355 -258 -91 -36 -112 -41 -185 -41 -67 0 -98 6 -163 29 -177 66
-461 206 -511 253 -13 12 -63 74 -111 138 -47 63 -101 132 -119 152 -65 74
-226 433 -224 497 1 18 -6 45 -15 58 -11 17 -14 36 -10 59 9 46 26 53 26 10 0
-20 9 -50 20 -68 11 -18 20 -41 20 -52 0 -10 8 -33 19 -50 10 -17 36 -74 56
-126 21 -52 59 -126 85 -165 26 -38 63 -95 83 -126 19 -31 81 -108 138 -172
153 -175 281 -254 534 -333 97 -30 137 -37 205 -38 76 -1 94 3 173 36 110 46
200 110 274 195 32 37 86 97 120 133 45 47 68 82 82 121 10 30 32 82 50 116
17 34 31 71 31 80 0 10 16 52 35 92 75 156 79 174 81 406 1 116 2 213 3 218 3
16 19 6 24 -15z m-2904 -453 c-15 -59 -35 -71 -33 -20 1 17 7 54 15 83 14 53
14 54 23 24 6 -20 4 -50 -5 -87z m201 -105 c1 -85 5 -141 25 -400 l5 -75 -40
80 -40 79 0 131 c0 125 14 288 27 309 12 19 22 -31 23 -124z m545 -1027 c121
-77 235 -144 253 -148 19 -4 48 -19 65 -35 50 -43 87 -58 188 -76 93 -17 161
-47 265 -118 21 -14 50 -26 64 -26 14 0 58 -9 98 -20 41 -12 102 -20 144 -20
81 0 308 34 340 51 26 14 31 7 23 -29 -6 -28 -12 -32 -73 -46 -188 -45 -342
-49 -492 -14 -70 16 -104 30 -130 52 -62 53 -245 126 -317 126 -19 0 -56 11
-83 25 -59 30 -193 114 -235 148 -16 13 -59 37 -95 54 -70 32 -294 178 -322
210 -9 10 -33 54 -53 98 l-36 79 88 -85 c67 -64 141 -119 308 -226z m-118 -97
c62 -37 143 -81 180 -98 38 -17 86 -43 108 -58 22 -15 67 -41 100 -58 35 -18
84 -55 118 -91 94 -97 115 -105 327 -130 108 -13 279 -38 330 -50 31 -7 70 -2
176 20 75 15 150 33 167 39 16 5 32 10 33 10 10 0 2 -49 -8 -57 -23 -17 -179
-56 -252 -63 -88 -9 -312 5 -386 24 -30 8 -102 22 -160 31 -191 30 -216 40
-295 121 -38 39 -81 75 -95 79 -14 4 -36 18 -50 31 -14 13 -66 44 -115 68 -50
24 -103 54 -120 65 -16 12 -37 21 -46 21 -8 0 -33 13 -56 30 -29 22 -45 44
-60 85 -11 30 -18 53 -14 51 3 -1 57 -33 118 -70z m25 -192 c34 -19 88 -55
119 -78 30 -24 80 -51 110 -61 85 -28 139 -53 139 -65 0 -20 -32 -23 -103 -7
-40 9 -90 19 -112 22 -32 5 -51 18 -90 61 -28 30 -64 58 -80 62 -24 7 -31 16
-41 55 -7 26 -11 47 -9 47 2 0 32 -16 67 -36z m689 -120 c30 -16 52 -33 49
-39 -8 -16 -67 -9 -131 16 -56 22 -78 46 -64 68 8 13 78 -9 146 -45z m-521
-138 c41 -13 109 -27 150 -30 41 -4 100 -16 130 -26 53 -19 284 -54 460 -70
47 -4 124 -15 173 -25 81 -15 93 -15 166 0 90 18 254 44 259 40 2 -2 0 -14 -3
-28 -6 -22 -16 -27 -83 -43 -43 -9 -122 -24 -177 -34 -55 -9 -116 -26 -135
-38 -78 -46 -315 -55 -570 -21 -85 11 -193 24 -240 29 -105 12 -221 35 -277
56 l-43 16 0 54 c0 30 4 54 9 54 5 0 24 -12 41 -27 25 -21 64 -34 179 -60 212
-48 307 -63 389 -63 51 0 80 -5 98 -17 22 -14 35 -15 85 -7 37 6 89 7 139 1
95 -11 130 -5 130 23 0 33 -64 44 -373 61 -180 9 -201 12 -240 35 -25 14 -58
24 -83 24 -23 0 -58 7 -77 15 -20 8 -59 15 -87 15 -39 0 -71 9 -136 41 -84 40
-84 41 -84 79 l0 38 63 -34 c34 -19 96 -45 137 -58z m1320 -285 c0 -36 1 -36
-170 -56 -87 -10 -168 -27 -228 -46 -59 -20 -102 -29 -118 -25 -14 4 -120 -1
-234 -10 l-208 -17 -114 31 c-68 19 -175 38 -270 49 l-156 17 -5 31 c-3 16 -4
31 -2 33 1 1 56 -4 121 -13 532 -67 528 -67 749 -60 123 4 231 12 260 20 28 7
86 18 130 24 44 7 112 20 150 30 94 26 95 26 95 -8z m-15 -138 c-8 -46 -18
-53 -75 -53 -25 0 -76 -7 -115 -15 -99 -22 -321 -40 -450 -38 -60 1 -153 1
-205 0 -293 -6 -620 8 -620 27 0 6 -3 22 -7 35 l-6 24 94 -7 c52 -4 139 -11
194 -15 65 -5 112 -14 135 -26 29 -15 47 -17 125 -10 49 4 175 9 279 11 197 4
298 19 521 79 50 13 101 24 114 24 22 1 23 -2 16 -36z m-31 -138 c-5 -12 -24
-15 -88 -14 l-81 1 50 13 c73 19 126 19 119 0z"/>
<path d="M7380 9491 c-19 -5 -55 -17 -80 -28 -25 -11 -61 -24 -80 -28 -19 -4
-80 -29 -135 -55 -55 -27 -120 -51 -145 -55 -25 -3 -79 -22 -121 -41 -42 -19
-105 -40 -140 -46 -35 -6 -72 -18 -82 -26 -15 -13 -15 -18 -4 -36 20 -30 57
-36 88 -15 33 23 199 75 264 83 32 4 94 28 170 66 87 43 127 58 146 54 19 -4
37 4 77 35 58 46 95 52 162 25 31 -12 56 -15 101 -10 44 5 85 2 152 -13 51
-10 127 -26 169 -35 42 -8 111 -28 153 -45 42 -17 91 -31 109 -31 50 0 309
-92 506 -180 36 -16 79 -32 95 -36 17 -3 50 -26 75 -49 25 -24 56 -46 70 -50
14 -4 41 -19 60 -34 19 -15 82 -63 140 -106 58 -43 125 -101 150 -128 42 -45
47 -48 73 -38 50 19 35 48 -78 150 -70 63 -136 111 -202 147 -53 30 -111 67
-128 84 -19 18 -41 30 -58 30 -18 0 -42 14 -71 40 -24 22 -49 40 -56 40 -7 0
-38 16 -69 35 -102 61 -287 135 -341 135 -33 0 -70 10 -117 31 -63 29 -258 78
-312 79 -13 0 -39 9 -57 21 -27 17 -54 21 -136 24 -57 1 -150 5 -208 8 -58 4
-121 2 -140 -2z"/>
<path d="M6905 9405 c-22 -13 -50 -25 -62 -25 -36 0 -27 -18 13 -26 74 -14
156 21 141 60 -9 23 -46 20 -92 -9z"/>
<path d="M6734 9348 c-40 -10 -58 -31 -49 -58 8 -24 26 -25 65 -5 50 26 37 77
-16 63z"/>
<path d="M8220 9223 c0 -15 54 -35 84 -31 19 2 23 7 17 17 -10 16 -101 28
-101 14z"/>
<path d="M2987 9353 c-40 -126 -61 -212 -54 -219 6 -6 1471 -502 1495 -506 11
-2 21 24 42 107 15 61 34 133 43 162 l15 51 -101 36 c-118 41 -1399 476 -1403
476 -2 0 -18 -48 -37 -107z"/>
<path d="M11253 9111 c-413 -124 -754 -229 -758 -232 -3 -4 10 -58 29 -120 19
-63 41 -135 48 -160 l13 -46 758 227 c416 125 759 229 762 232 6 6 -83 310
-93 319 -4 3 -345 -96 -759 -220z"/>
<path d="M3637 8072 l-757 -177 6 -35 c4 -19 21 -93 38 -165 28 -115 34 -130
52 -127 31 6 1528 353 1530 355 1 1 -13 65 -32 142 -19 76 -34 149 -34 162 0
17 -5 23 -22 22 -13 -1 -364 -80 -781 -177z"/>
<path d="M10581 8106 c-7 -47 -21 -122 -31 -168 -11 -45 -18 -83 -17 -84 2 -3
1525 -414 1531 -414 4 0 60 228 71 291 6 35 5 37 -27 47 -18 6 -359 99 -758
207 -399 108 -732 198 -741 201 -13 3 -18 -11 -28 -80z"/>
<path d="M4085 6910 c-379 -203 -694 -371 -700 -373 -6 -2 0 -23 14 -48 46
-87 146 -249 153 -249 10 0 1381 731 1395 744 10 9 4 25 -28 71 -22 33 -62 97
-90 143 -28 45 -51 82 -52 81 -1 0 -312 -166 -692 -369z"/>
<path d="M10269 7168 c-7 -18 -44 -83 -81 -145 -37 -62 -68 -115 -68 -117 0
-7 1357 -796 1370 -796 15 0 179 284 170 293 -6 5 -1360 790 -1370 795 -4 1
-13 -12 -21 -30z"/>
<path d="M6380 3805 c-185 -52 -238 -231 -98 -334 80 -59 89 -60 748 -77 333
-8 747 -16 921 -17 l315 -2 59 30 c185 95 159 289 -49 359 -40 14 -145 19
-670 31 -1155 26 -1165 27 -1226 10z"/>
<path d="M6410 3274 c-211 -38 -290 -217 -150 -337 76 -65 97 -68 475 -78 187
-4 531 -13 765 -19 720 -18 726 -18 798 15 181 81 184 259 7 346 l-65 32 -243
8 c-133 4 -471 13 -752 18 -280 6 -577 13 -660 15 -82 2 -161 2 -175 0z"/>
<path d="M6385 2740 c-131 -28 -205 -98 -205 -194 0 -60 30 -116 81 -152 80
-55 84 -56 659 -70 1029 -26 1217 -29 1280 -21 76 9 152 48 187 94 27 35 40
103 29 148 -11 41 -77 106 -136 133 -63 28 -128 31 -1060 51 -267 6 -555 13
-640 15 -85 3 -173 1 -195 -4z"/>
<path d="M6772 2214 c-19 -9 -33 -41 -25 -59 3 -10 49 -45 103 -80 53 -34 120
-83 148 -108 29 -26 65 -53 80 -61 74 -37 258 -48 366 -20 43 11 81 31 131 68
39 29 111 77 162 105 94 54 112 75 94 110 -13 23 -85 28 -536 36 -165 3 -347
7 -405 10 -58 2 -111 2 -118 -1z"/>
</g>
</svg>
