<?xml version="1.0" standalone="no"?>
<!DOCTYPE svg PUBLIC "-//W3C//DTD SVG 20010904//EN"
 "http://www.w3.org/TR/2001/REC-SVG-20010904/DTD/svg10.dtd">
<svg version="1.0" xmlns="http://www.w3.org/2000/svg"
 width="1280.000000pt" height="720.000000pt" viewBox="0 0 1280.000000 720.000000"
 preserveAspectRatio="xMidYMid meet">

<g transform="translate(0.000000,720.000000) scale(0.100000,-0.100000)"
fill="#000000" stroke="none">
<path d="M0 5734 c0 -1385 1 -1468 18 -1480 16 -13 16 -13 0 -14 -28 0 -21
-29 8 -36 14 -4 54 -3 87 1 120 14 170 16 186 9 22 -9 85 -4 92 8 4 7 13 6 27
-1 15 -8 22 -8 25 2 4 9 8 8 16 -3 10 -13 11 -13 11 0 0 12 12 14 65 12 36 -2
65 -8 65 -14 0 -5 7 -2 16 7 13 13 19 13 32 3 12 -11 16 -11 20 1 3 9 7 10 11
2 5 -7 18 -8 41 -1 19 5 80 11 135 14 80 5 103 9 113 23 48 66 97 88 224 100
38 3 75 11 84 18 15 10 44 140 60 265 3 25 9 60 14 78 5 21 5 32 -2 32 -7 0
-7 4 0 13 11 13 32 219 32 311 0 30 -5 58 -10 61 -6 4 -10 18 -9 33 3 38 -16
237 -21 237 -2 0 -3 33 -4 73 -1 43 -6 76 -13 80 -6 4 -11 16 -10 27 1 13 -5
20 -18 21 -11 1 -24 3 -30 4 -5 2 -23 -2 -38 -8 -22 -9 -25 -15 -16 -25 7 -7
23 -12 37 -12 14 0 27 -6 30 -14 4 -11 -4 -13 -37 -7 l-41 6 0 -91 c0 -81 -2
-90 -17 -87 -16 3 -18 16 -18 92 l0 89 -83 -7 c-81 -6 -83 -6 -94 19 -8 18
-15 22 -27 16 -9 -5 -34 -11 -56 -15 -22 -4 -48 -9 -57 -12 -12 -4 -18 0 -18
10 0 9 5 16 11 16 5 0 7 5 4 10 -3 6 -1 10 4 10 6 0 11 7 11 15 0 10 10 15 29
15 21 0 32 6 36 20 4 13 15 20 30 20 54 0 104 30 127 76 12 24 25 44 28 44 4
0 15 18 25 40 11 25 22 37 27 32 6 -6 -3 -31 -21 -64 -44 -77 -42 -91 12 -85
83 10 122 19 134 34 7 9 19 13 27 10 9 -4 22 1 30 9 12 12 15 41 12 157 -2 78
-7 150 -11 160 -7 16 -9 17 -25 2 -32 -29 -30 1 3 46 17 24 27 40 21 36 -7 -4
-14 2 -17 13 -3 11 -1 18 4 14 24 -14 5 17 -26 45 -36 31 -44 54 -23 67 6 4 8
3 5 -2 -3 -6 3 -15 13 -22 11 -7 21 -8 25 -2 3 5 1 11 -4 15 -6 3 -8 12 -5 19
3 8 1 17 -5 21 -6 3 -11 14 -11 23 0 10 -10 22 -22 27 -26 12 -38 38 -13 28
14 -5 16 -2 11 18 -3 13 -3 18 0 12 10 -22 19 -14 20 17 1 16 -2 27 -6 25 -4
-2 -75 -6 -158 -9 -122 -4 -152 -3 -152 8 0 7 23 43 51 80 78 104 110 193 83
234 -19 29 -54 26 -70 -6 -8 -16 -14 -20 -19 -12 -10 16 27 64 53 68 13 2 32
-7 48 -23 23 -23 26 -32 21 -70 -8 -56 -45 -138 -92 -204 l-39 -53 30 5 c16 3
50 9 77 12 26 3 45 10 42 15 -3 5 -1 12 5 15 6 4 9 1 8 -7 -4 -19 49 -22 68
-4 18 18 39 21 28 4 -4 -6 -3 -8 3 -5 6 4 13 33 17 66 4 33 11 61 15 63 5 2
11 13 15 24 5 16 -1 30 -24 52 -33 34 -40 58 -12 47 9 -4 27 -10 40 -12 17 -4
21 -2 16 11 -3 9 -2 16 3 16 15 0 7 172 -9 181 -8 6 -9 9 -1 9 6 0 10 8 8 18
-2 9 -4 19 -4 22 -1 3 -13 -20 -27 -50 -21 -45 -27 -52 -35 -38 -6 11 -3 31
12 65 l20 48 -20 15 c-11 8 -31 22 -43 32 -18 13 -20 19 -11 28 9 10 21 7 56
-13 l44 -26 11 23 c5 12 7 35 4 51 -5 26 -6 27 -13 10 -6 -17 -8 -17 -8 -2 -1
19 -21 24 -21 5 0 -9 -3 -10 -8 -2 -4 7 -57 12 -139 13 l-133 2 0 -33 c1 -18
7 -60 15 -93 17 -69 19 -125 6 -125 -9 0 -32 87 -46 175 -14 83 43 75 -511 75
l-494 0 0 -1466z m1208 822 c-7 -8 -15 -12 -17 -11 -5 6 10 25 20 25 5 0 4 -6
-3 -14z m-27 -186 c25 -14 25 -74 0 -116 l-19 -31 39 -12 c63 -19 87 -88 52
-154 -22 -44 -41 -56 -86 -57 -31 0 -38 3 -35 18 3 12 12 16 34 14 38 -3 72
31 78 78 6 50 -30 78 -102 82 l-57 3 42 38 c68 63 61 116 -13 104 -36 -6 -74
-35 -74 -57 0 -5 -4 -10 -10 -10 -18 0 -11 28 15 58 14 17 42 35 63 40 50 13
51 13 73 2z m26 -1164 c-7 -16 14 -28 31 -17 16 9 82 1 82 -10 0 -9 -43 -14
-92 -10 -16 1 -28 -3 -28 -8 0 -6 -9 -11 -20 -11 -26 0 -25 14 3 44 26 28 31
31 24 12z"/>
<path d="M7760 7185 c0 -8 -9 -15 -20 -15 -11 0 -20 -7 -20 -15 0 -9 -10 -19
-22 -24 -13 -5 -34 -20 -46 -34 -19 -20 -22 -29 -13 -45 15 -29 14 -32 -14
-32 -28 0 -35 -20 -7 -20 15 -1 15 -2 -3 -16 -19 -14 -19 -15 3 -20 26 -7 28
-17 7 -34 -12 -10 -11 -16 7 -40 11 -15 17 -33 14 -39 -4 -6 -2 -20 4 -30 8
-17 6 -23 -13 -36 -13 -8 -32 -13 -41 -9 -12 4 -16 0 -16 -15 0 -28 -18 -27
-29 2 l-9 22 -12 -27 c-7 -14 -22 -29 -34 -33 -20 -7 -20 -7 4 -14 l25 -7 -22
-8 c-37 -12 -27 -23 37 -37 33 -7 61 -18 64 -25 7 -18 -5 -55 -15 -48 -5 3
-12 -2 -15 -10 -10 -25 -22 -19 -29 14 -4 17 -11 30 -16 30 -4 0 -6 -13 -2
-30 5 -30 -10 -43 -20 -17 -3 7 -6 5 -6 -5 -1 -9 7 -21 16 -27 10 -5 14 -13
10 -17 -4 -4 -13 -2 -19 4 -15 15 -64 16 -73 2 -3 -5 0 -10 7 -10 24 0 69 -46
62 -64 -3 -9 -1 -16 5 -16 6 0 8 -7 4 -15 -6 -17 22 -44 47 -45 14 0 40 -42
40 -63 0 -4 -10 -5 -22 -2 -16 6 -20 4 -15 -8 3 -9 -1 -18 -10 -21 -9 -4 -13
-13 -9 -21 3 -10 -1 -18 -12 -22 -9 -4 -21 -12 -25 -19 -5 -9 -18 -11 -37 -7
-29 5 -44 -11 -18 -19 7 -3 9 -12 4 -23 -6 -16 -9 -17 -16 -5 -7 11 -12 12
-20 4 -8 -8 -6 -15 6 -25 9 -8 19 -13 21 -11 10 7 24 0 20 -10 -2 -7 -10 -13
-18 -13 -8 0 -25 -8 -39 -18 -19 -13 -21 -17 -7 -17 9 0 17 5 17 10 0 13 47
13 55 0 6 -10 -32 -22 -77 -24 -15 -1 -28 -5 -28 -10 0 -4 -7 -6 -15 -2 -10 4
-15 -1 -16 -17 0 -12 -3 -16 -6 -9 -7 18 -60 15 -72 -5 -9 -17 -10 -17 -16 0
-4 9 -14 17 -22 17 -9 0 -13 -6 -9 -15 3 -8 -3 -19 -12 -25 -15 -10 -14 -11 6
-6 20 4 21 2 11 -10 -7 -9 -21 -13 -31 -11 -10 3 -21 1 -24 -4 -3 -5 4 -9 15
-9 12 0 21 -4 21 -10 0 -12 -47 -13 -54 -1 -3 5 -20 11 -38 14 -25 3 -38 -1
-53 -17 -23 -25 -21 -56 3 -56 14 0 14 -2 3 -9 -10 -6 -6 -11 15 -18 28 -10
28 -10 7 -17 -13 -4 -23 -12 -23 -18 0 -6 6 -6 15 2 13 11 20 11 40 0 14 -7
25 -19 25 -26 0 -7 3 -20 7 -30 5 -13 3 -16 -10 -11 -8 3 -21 -1 -27 -9 -7 -8
-21 -14 -31 -14 -11 0 -19 -5 -19 -11 0 -13 53 -2 58 12 2 5 13 9 24 9 18 0
19 -2 7 -17 -12 -15 -12 -16 7 -11 12 3 28 2 35 -3 10 -6 8 -9 -8 -9 -13 0
-23 -5 -23 -11 0 -6 10 -9 23 -8 12 1 29 -1 37 -4 23 -10 116 -15 127 -8 12 8
13 41 1 41 -5 0 -6 5 -2 11 5 8 10 6 16 -5 10 -18 43 -22 53 -6 3 6 32 9 63 8
37 -2 68 3 90 14 17 9 32 12 32 7 0 -5 6 -9 14 -9 8 0 17 -4 20 -9 10 -15 -4
-40 -22 -40 -55 0 -144 -20 -177 -40 -36 -21 -62 -29 -107 -30 -9 -1 -27 -12
-40 -25 -18 -19 -36 -25 -83 -29 -172 -13 -320 -30 -323 -38 -2 -5 -11 -5 -20
0 -9 5 -36 12 -60 16 -23 4 -40 11 -37 15 12 19 -138 32 -162 15 -10 -7 -22
-10 -28 -6 -17 14 -84 0 -88 -18 -4 -13 -5 -13 -6 2 -1 16 -6 18 -43 11 -24
-4 -54 -7 -68 -6 -32 2 -118 -16 -149 -31 -19 -10 -25 -9 -29 1 -3 10 -7 10
-18 1 -9 -7 -35 -10 -69 -7 -31 3 -58 1 -61 -4 -3 -4 -23 -8 -44 -8 -21 0 -50
-4 -64 -10 -18 -6 -26 -6 -26 1 0 6 -4 7 -10 4 -5 -3 -10 2 -11 12 0 10 -3 13
-6 6 -11 -28 -21 -10 -28 49 -5 39 -14 67 -24 75 -12 9 -13 12 -2 13 10 0 12
9 7 33 -4 20 -3 27 3 18 6 -9 11 -10 15 -2 4 6 16 11 27 11 25 0 25 20 -1 27
-11 3 -17 9 -14 14 5 9 -10 12 -50 12 -38 -1 -93 102 -83 153 2 13 1 21 -3 19
-12 -7 -40 64 -46 118 -3 29 -9 66 -14 82 -8 27 -24 124 -34 200 -17 127 -107
391 -171 498 -19 32 -35 62 -35 66 0 9 -53 58 -90 84 -30 21 -93 22 -110 2
-10 -12 -24 -14 -60 -9 -26 3 -71 1 -100 -5 -57 -12 -149 -54 -165 -75 -5 -7
-22 -21 -38 -31 -23 -14 -101 -125 -102 -144 -1 -3 -4 -15 -8 -26 -3 -11 -8
-31 -11 -45 -2 -14 -13 -51 -24 -82 -15 -46 -17 -60 -7 -68 7 -6 13 -26 13
-45 0 -18 3 -38 6 -44 4 -6 2 -20 -5 -32 -8 -16 -8 -20 1 -14 7 5 11 1 10 -11
-1 -11 -2 -37 -1 -59 2 -60 18 -25 26 58 12 114 29 169 81 257 63 108 141 187
192 195 20 3 57 9 81 14 37 8 47 6 65 -10 11 -11 37 -24 57 -29 51 -14 129
-98 129 -140 0 -17 6 -46 14 -64 9 -22 11 -38 4 -50 -5 -9 -6 -30 -3 -47 l7
-31 -25 17 c-39 25 -133 6 -169 -36 -28 -31 -42 -97 -16 -71 17 17 29 15 22
-3 -4 -10 0 -15 14 -15 12 0 23 -4 26 -8 8 -13 111 -35 139 -30 27 5 37 -7 37
-41 0 -21 -28 -81 -38 -81 -4 0 -18 -23 -31 -50 -14 -28 -30 -50 -35 -50 -6 0
-4 -4 4 -10 9 -5 19 -5 27 1 24 21 32 -1 15 -40 -23 -51 -90 -110 -103 -90 -5
8 -9 9 -9 3 0 -17 -130 -119 -169 -132 -19 -7 -45 -12 -57 -12 -29 0 -32 -16
-5 -25 11 -3 18 -12 15 -19 -7 -18 41 -66 66 -66 11 0 20 5 20 10 0 6 10 0 21
-11 21 -21 21 -25 10 -104 l-13 -82 30 -29 c53 -52 58 -47 93 94 26 110 40
104 47 -19 4 -76 4 -76 48 -110 24 -19 43 -36 44 -39 0 -3 18 -25 40 -49 79
-84 92 -153 35 -181 -22 -11 -29 -21 -27 -38 6 -43 91 -57 136 -21 15 12 33
18 45 14 22 -7 51 3 51 18 0 5 15 28 34 51 18 23 40 55 49 71 8 17 24 39 36
49 21 19 22 19 52 -10 42 -39 65 -88 80 -165 6 -35 18 -90 25 -122 8 -33 12
-63 9 -68 -3 -5 0 -20 8 -35 11 -21 38 -35 127 -69 l113 -42 86 37 c179 78
543 221 549 216 3 -4 3 -7 1 -9 -5 -4 -529 -223 -585 -244 l-40 -16 -455 167
c-250 92 -461 170 -470 173 -16 5 -66 -53 -220 -253 -29 -39 -124 -160 -209
-269 -344 -439 -355 -455 -316 -455 13 0 774 -248 789 -257 5 -3 -6 -18 -25
-34 -38 -33 -19 -40 27 -9 17 11 40 20 53 20 18 0 22 -6 22 -31 l0 -30 29 20
29 21 6 -47 c3 -27 9 -86 13 -133 8 -103 4 -82 30 -165 12 -38 29 -106 38
-150 25 -116 30 -130 50 -134 13 -2 16 1 11 14 -16 44 -102 472 -112 560 -6
56 -5 59 10 40 8 -11 16 -24 16 -28 0 -5 16 -27 35 -50 19 -22 35 -46 35 -53
0 -6 7 -17 15 -24 8 -7 15 -21 15 -30 0 -10 5 -20 10 -22 10 -3 65 -176 115
-358 13 -47 35 -125 50 -175 49 -161 56 -188 45 -199 -7 -7 -10 -5 -10 6 0 17
-26 32 -41 22 -5 -3 -10 1 -11 8 0 7 -4 -7 -7 -31 -9 -64 -26 -61 -52 9 -29
80 -35 71 -8 -15 21 -68 20 -76 -14 -87 -4 -2 -9 -15 -11 -30 -3 -34 -23 -58
-46 -58 -25 0 -70 -56 -70 -86 0 -13 6 -33 12 -44 14 -22 5 -36 -27 -42 -19
-3 -21 7 -37 142 -9 80 -17 175 -17 213 -1 75 -5 78 -69 51 -83 -35 -241 -76
-350 -89 -65 -8 -123 -15 -129 -15 -9 0 -13 16 -13 44 0 66 -16 64 -30 -4 -10
-46 -17 -60 -30 -60 -10 0 -116 34 -235 76 -119 41 -218 74 -220 72 -10 -12
-46 -304 -48 -390 -2 -59 -6 -110 -9 -113 -3 -4 -39 -2 -79 4 -51 7 -77 7 -86
-1 -7 -5 -11 -14 -8 -18 9 -14 -30 -39 -79 -50 -54 -12 -199 -15 -216 -5 -6 4
-21 4 -33 1 -22 -5 -23 -9 -21 -113 1 -59 7 -132 13 -162 6 -29 8 -57 5 -62
-3 -6 -1 -15 5 -22 14 -18 38 -179 86 -587 14 -118 28 -226 31 -240 l4 -25
208 0 c229 0 265 -7 307 -56 l25 -31 0 27 c0 38 48 82 105 96 34 9 49 18 56
35 7 20 48 202 80 361 4 23 15 68 23 101 20 77 54 250 63 320 l7 57 7 -66 c4
-36 14 -92 23 -125 9 -32 21 -79 27 -104 7 -25 15 -54 20 -65 9 -24 25 -160
22 -194 -1 -14 2 -30 6 -35 5 -6 11 -48 13 -93 l3 -83 35 0 c19 0 79 3 134 7
l99 6 53 81 c87 132 127 180 161 191 17 6 52 25 76 43 25 17 50 32 56 32 25 0
8 -37 -38 -79 -48 -44 -50 -48 -44 -89 5 -38 2 -47 -22 -72 -22 -23 -26 -34
-20 -57 l8 -28 11 26 c11 27 40 59 51 59 4 0 4 -8 0 -17 -4 -10 -8 -25 -9 -34
-1 -9 -24 -42 -51 -73 l-49 -58 12 -45 c12 -43 11 -48 -9 -69 -12 -13 -30 -26
-41 -29 -31 -11 -33 -51 -4 -96 30 -44 27 -59 -10 -59 -18 0 -24 -5 -24 -21 0
-13 -5 -19 -12 -16 -8 3 -14 -5 -14 -20 -3 -34 -8 -37 -45 -24 -22 8 -36 8
-43 1 -5 -5 -19 -10 -29 -10 -10 0 -21 -9 -24 -20 -3 -13 -14 -20 -28 -20 -14
0 -30 -11 -40 -27 -18 -26 -17 -27 11 -52 17 -14 45 -37 63 -51 30 -23 32 -29
23 -47 -10 -18 -25 -22 -109 -29 -54 -5 -197 -9 -318 -9 -190 0 -224 2 -247
17 -20 13 -28 14 -38 5 -10 -10 -11 0 -6 48 3 33 11 116 16 185 5 69 12 139
15 155 5 30 -8 65 -18 49 -3 -5 -34 -76 -69 -159 -47 -110 -67 -167 -71 -215
-4 -35 -12 -69 -17 -74 -6 -6 -31 -9 -56 -7 -43 2 -46 1 -42 -17 8 -28 -21
-38 -166 -57 -144 -19 -602 -27 -693 -12 -51 8 -74 7 -121 -6 -45 -12 -83 -15
-165 -10 -76 4 -110 3 -121 -6 -12 -10 -17 -8 -25 8 -16 28 -14 62 2 55 8 -3
156 2 330 11 174 8 326 15 339 15 22 1 22 1 4 12 -12 7 -112 10 -299 9 -275
-1 -334 -5 -369 -22 -21 -11 -31 6 -47 81 -7 30 -16 72 -22 93 l-10 39 -28
-44 c-39 -59 -91 -231 -91 -299 0 -17 -9 -44 -20 -59 -23 -32 -32 -162 -13
-181 16 -16 695 67 744 91 46 23 301 32 337 12 14 -8 38 -11 65 -7 l43 7 -4
-99 c-2 -54 -5 -103 -7 -109 -2 -8 -49 -14 -132 -18 -70 -4 -159 -8 -197 -10
-59 -4 -71 -2 -85 15 -13 16 -22 17 -56 10 -22 -5 -65 -7 -95 -5 -58 3 -512
-45 -531 -56 -6 -4 -12 -16 -13 -26 -2 -10 -12 -20 -23 -22 -12 -2 -29 -12
-39 -23 -19 -21 -18 -21 66 -15 167 10 216 14 252 21 30 6 39 4 44 -9 8 -20
34 -21 60 -1 10 8 37 15 59 15 23 0 46 5 53 12 6 6 37 15 69 19 32 4 59 12 61
17 3 11 50 4 58 -9 2 -4 -4 -17 -16 -29 -11 -11 -20 -24 -20 -30 0 -17 72 -11
85 7 12 15 15 15 48 0 32 -16 134 -17 1264 -17 1017 0 1252 3 1368 15 185 20
264 20 271 0 5 -13 168 -15 1380 -15 l1373 0 -15 35 c-17 41 -20 373 -4 443 8
32 6 68 -5 137 -9 54 -15 159 -15 244 0 134 -3 159 -26 233 -21 66 -27 105
-28 189 -1 96 1 110 25 155 34 62 27 83 -38 120 -26 15 -63 39 -82 52 l-34 25
-23 -29 c-13 -16 -26 -41 -29 -55 -4 -15 -22 -53 -41 -84 -19 -32 -34 -61 -34
-65 0 -4 -22 -37 -50 -74 -27 -37 -53 -78 -56 -91 -3 -14 -26 -40 -50 -57 -24
-17 -44 -35 -44 -39 0 -16 -87 -59 -105 -53 -14 6 -16 15 -10 52 4 25 14 66
23 91 14 38 25 50 64 68 94 46 162 156 179 294 6 46 19 127 30 179 24 119 43
375 34 455 -15 141 -54 231 -142 325 -118 128 -241 182 -508 225 -55 9 -103
21 -106 27 -7 11 -15 178 -25 550 -6 226 -6 227 19 281 l24 54 108 6 c60 4
172 7 250 7 78 0 224 3 323 7 l182 6 0 25 0 25 -272 -7 c-237 -5 -478 -8 -557
-7 -22 1 -23 3 -17 49 3 26 15 98 27 160 19 98 24 113 43 116 19 4 520 16 669
16 48 0 57 3 57 18 0 10 5 23 11 29 9 9 9 23 1 55 -6 24 -14 58 -17 76 -4 18
-13 45 -21 62 -12 24 -19 28 -37 22 -36 -12 -654 -9 -667 4 -6 6 -8 18 -5 26
6 16 166 27 436 29 198 2 261 9 254 28 -3 9 -12 63 -19 121 -8 66 -24 131 -41
175 -18 43 -31 99 -35 145 -4 41 -12 98 -19 125 -7 28 -18 68 -23 90 -6 22
-17 58 -26 80 -24 63 -29 381 -8 505 25 139 35 172 64 203 32 33 82 37 112 7
24 -24 26 -70 8 -245 -6 -66 -8 -137 -4 -158 l7 -39 38 41 c33 35 44 41 80 41
48 0 86 -30 96 -77 12 -50 14 -53 47 -53 19 0 44 -7 56 -16 19 -13 28 -14 51
-4 39 16 80 3 102 -34 22 -35 25 -117 8 -231 -5 -38 -14 -113 -19 -165 -5 -52
-11 -102 -15 -110 -3 -9 -11 -52 -18 -98 -11 -68 -11 -93 -1 -145 8 -34 15
-83 16 -109 2 -26 8 -49 13 -52 15 -5 756 12 762 18 3 3 19 -2 36 -10 27 -15
29 -15 24 0 -6 14 6 16 91 18 53 1 106 1 117 1 11 0 23 4 26 9 3 5 4 199 1
430 l-5 421 37 -6 c40 -6 86 6 86 23 0 7 -26 10 -70 8 -38 -1 -73 2 -77 6 -13
12 -9 501 3 517 12 15 12 18 -1 852 l-7 477 -1339 0 c-1184 0 -1339 -2 -1339
-15z m-2386 -764 c17 -19 17 -20 -4 -31 -20 -11 -39 -10 -87 6 -15 5 -15 4 -3
-5 12 -9 9 -11 -17 -11 -27 0 -30 3 -26 21 11 40 106 54 137 20z m2655 -188
c22 -19 51 -115 51 -170 0 -37 0 -37 32 -22 36 16 75 -4 93 -47 8 -20 15 -45
15 -55 0 -10 8 -20 18 -23 18 -6 62 -65 62 -83 0 -6 15 -20 34 -31 39 -23 76
-93 76 -145 0 -40 -17 -49 -40 -22 -7 9 -15 13 -18 10 -4 -3 7 -17 22 -30 l29
-25 -17 -45 c-10 -25 -22 -45 -28 -45 -6 0 -8 -8 -6 -18 5 -17 3 -17 -28 -3
-18 9 -35 24 -38 34 -4 18 -6 17 -35 -4 -17 -13 -31 -28 -31 -35 0 -43 -45
-88 -62 -62 -9 15 -11 6 -2 -16 6 -16 54 -23 54 -8 0 4 16 6 35 4 47 -6 58
-28 49 -100 -4 -31 -8 -79 -10 -107 -1 -27 -8 -84 -14 -125 -6 -41 -11 -97
-11 -125 1 -46 0 -48 -13 -31 -14 18 -15 18 -20 -5 -3 -13 -8 -53 -11 -89 -2
-36 -10 -96 -17 -133 -9 -54 -9 -76 1 -103 10 -27 10 -38 1 -49 -7 -8 -9 -22
-6 -31 6 -16 -8 -84 -24 -115 -4 -8 -6 -27 -5 -42 2 -15 -1 -29 -6 -33 -5 -3
-9 -16 -9 -30 0 -14 -8 -41 -18 -62 -10 -20 -19 -53 -21 -72 -1 -19 -11 -44
-22 -56 -11 -12 -25 -42 -30 -66 -5 -23 -18 -62 -29 -85 -25 -55 -40 -152 -30
-196 10 -48 -3 -113 -29 -141 -11 -12 -21 -29 -21 -37 0 -8 -7 -24 -15 -35
-16 -21 -20 -54 -6 -54 9 0 26 -64 36 -140 3 -25 13 -72 20 -105 8 -33 12 -84
10 -115 -11 -122 -22 -180 -38 -198 -9 -10 -17 -24 -17 -32 0 -22 -42 -51 -70
-48 -19 2 -24 8 -23 26 2 12 -3 22 -10 22 -14 0 -42 51 -51 92 -3 15 -15 30
-26 33 -11 3 -23 17 -26 30 -3 13 -14 31 -25 41 -10 9 -19 23 -19 30 0 8 -13
20 -29 28 -28 15 -30 14 -53 -16 -22 -28 -27 -30 -64 -24 -37 7 -42 11 -52 44
-6 21 -23 53 -37 72 -14 18 -25 39 -25 44 0 6 -24 36 -53 66 -29 30 -70 76
-91 102 -65 81 -154 137 -248 158 -45 10 -58 17 -58 32 0 10 -7 18 -15 18 -8
0 -15 7 -15 15 0 8 8 15 18 15 91 1 522 14 612 19 113 6 115 6 115 30 l0 24
-165 -2 c-754 -9 -1639 -32 -1670 -43 -41 -16 -60 -27 -60 -36 0 -4 165 -6
367 -5 343 3 366 2 338 -13 -16 -9 -46 -31 -65 -48 -19 -18 -62 -52 -95 -76
-94 -69 -165 -141 -192 -193 -38 -76 -83 -205 -83 -240 0 -18 -9 -45 -20 -62
-11 -16 -20 -36 -20 -44 0 -19 -39 -61 -56 -61 -8 0 -20 13 -28 29 -24 46 -58
150 -53 164 2 6 -4 24 -14 38 -10 14 -16 29 -13 32 7 6 -17 77 -26 77 -3 0 -6
12 -7 28 -1 27 -10 93 -14 102 -1 3 -1 9 0 13 1 5 -5 28 -14 52 -8 25 -17 57
-20 72 -2 16 -11 49 -19 76 -13 45 -13 47 5 47 22 0 25 20 7 39 -10 11 -10 12
-1 7 20 -11 104 22 136 54 51 50 87 168 70 230 -12 46 -2 131 11 93 4 -13 13
-23 19 -23 17 -1 582 3 780 5 92 1 167 -2 167 -6 0 -4 8 -6 18 -4 9 2 17 4 17
5 0 1 77 3 170 5 94 3 184 6 200 9 17 2 103 4 193 5 146 1 163 3 168 19 3 9 9
24 14 33 5 9 11 45 15 80 3 35 8 78 11 95 l4 31 -77 5 c-43 3 -82 3 -88 -1
-13 -8 -50 -9 -475 -15 -201 -3 -428 -9 -505 -14 -77 -5 -194 -11 -260 -12
-66 -1 -135 -3 -152 -4 -42 -3 -41 8 1 50 l34 34 169 0 c241 0 1182 20 1287
28 l89 7 12 55 c55 252 68 329 85 500 19 179 19 203 6 285 -8 50 -22 117 -31
150 -24 85 -42 286 -33 374 5 45 15 86 28 106 11 18 20 48 20 67 0 38 15 58
42 58 17 0 19 9 16 111 -3 106 -2 112 21 130 29 24 43 24 70 2z m-452 1 c-3
-3 -12 -4 -19 -1 -8 3 -5 6 6 6 11 1 17 -2 13 -5z m-57 -139 c0 -8 -4 -15 -10
-15 -5 0 -7 7 -4 15 4 8 8 15 10 15 2 0 4 -7 4 -15z m-213 -96 c-14 -8 -16
-14 -6 -25 9 -11 8 -14 -5 -14 -19 0 -22 36 -3 43 22 10 32 7 14 -4z m-40 -25
c-3 -3 -12 -4 -19 -1 -8 3 -5 6 6 6 11 1 17 -2 13 -5z m53 -34 c0 -4 -6 -13
-13 -19 -11 -8 -18 -7 -31 7 -9 10 -14 21 -11 24 8 7 55 -3 55 -12z m-80 1 c0
-5 -6 -12 -12 -15 -7 -3 -4 -5 7 -5 38 2 45 -1 45 -22 0 -16 -4 -19 -17 -14
-35 15 -63 17 -63 6 0 -6 -12 -11 -27 -10 l-28 1 28 11 c15 6 26 16 23 23 -2
6 1 17 7 23 13 13 37 15 37 2z m-80 -15 c0 -3 -4 -8 -10 -11 -5 -3 -10 -1 -10
4 0 6 5 11 10 11 6 0 10 -2 10 -4z m-73 -12 c-3 -3 -12 -4 -19 -1 -8 3 -5 6 6
6 11 1 17 -2 13 -5z m128 -74 c3 -5 1 -10 -4 -10 -6 0 -11 5 -11 10 0 6 2 10
4 10 3 0 8 -4 11 -10z m465 -120 c0 -5 -2 -10 -4 -10 -3 0 -8 5 -11 10 -3 6
-1 10 4 10 6 0 11 -4 11 -10z m-1980 -386 c0 -14 -4 -22 -10 -19 -5 3 -9 17
-8 30 3 31 18 21 18 -11z m120 -679 c16 -20 5 -45 -20 -45 -21 0 -27 -15 -10
-23 6 -3 5 -4 -1 -3 -18 3 -28 38 -18 64 10 25 31 29 49 7z m-278 -27 c31 -26
48 -61 36 -75 -14 -18 -48 -17 -48 2 0 8 -7 15 -15 15 -24 0 -37 36 -19 54 19
19 26 20 46 4z m253 -67 c-3 -6 1 -13 8 -18 8 -4 17 -26 21 -48 5 -31 4 -37
-5 -25 -9 12 -9 11 -3 -5 9 -24 9 -64 -1 -73 -12 -12 -22 20 -28 91 -6 65 -3
87 9 87 3 0 3 -4 -1 -9z m-128 -106 c31 -60 65 -96 83 -90 10 3 34 -3 54 -15
20 -11 43 -20 51 -20 8 0 15 -9 15 -20 0 -11 -7 -20 -15 -20 -8 0 -22 -14 -30
-30 -9 -17 -20 -28 -25 -25 -11 7 -100 -34 -100 -45 0 -11 -60 -31 -71 -24 -5
3 -9 11 -9 17 0 21 -44 67 -69 72 -29 5 -40 16 -23 22 6 3 12 12 12 20 0 11
-7 14 -26 10 -20 -4 -33 3 -60 32 -18 20 -36 44 -40 54 -3 10 -25 36 -49 58
-26 24 -42 46 -38 55 12 32 49 11 157 -93 101 -97 118 -109 167 -121 52 -12
55 -11 72 10 12 14 15 24 8 26 -6 2 -9 7 -6 12 3 4 -13 3 -35 -2 -22 -6 -37
-14 -34 -19 3 -5 3 -9 1 -9 -10 0 -47 72 -42 80 3 5 -1 12 -9 17 -7 4 -25 32
-40 61 -25 49 -25 52 -7 52 10 0 22 8 26 18 6 15 11 12 37 -18 16 -19 37 -48
45 -65z m-292 -117 c67 -70 162 -142 190 -143 34 -2 60 -32 45 -50 -19 -23
-50 -18 -72 11 -12 14 -27 23 -35 20 -9 -4 -11 -2 -7 6 5 8 2 9 -10 5 -9 -4
-15 -3 -12 2 7 10 -28 43 -40 39 -13 -4 -64 37 -64 51 0 6 -4 11 -8 11 -15 0
-73 80 -67 90 12 19 31 9 80 -42z m647 -30 c-7 -7 -12 -8 -12 -2 0 14 12 26
19 19 2 -3 -1 -11 -7 -17z m-25 -10 c-3 -8 -6 -5 -6 6 -1 11 2 17 5 13 3 -3 4
-12 1 -19z m-299 -373 c0 -14 -4 -25 -9 -25 -5 0 -9 11 -9 25 0 14 4 25 9 25
5 0 9 -11 9 -25z m122 -669 c0 -3 -4 -8 -10 -11 -5 -3 -10 -1 -10 4 0 6 5 11
10 11 6 0 10 -2 10 -4z m2055 -455 c3 -5 1 -12 -5 -16 -5 -3 -10 1 -10 9 0 18
6 21 15 7z m-2191 -117 c12 -5 14 -10 6 -19 -6 -7 -10 -17 -9 -21 1 -5 1 -19
0 -31 -2 -34 -21 -28 -21 7 0 16 -7 33 -16 38 -33 18 2 40 40 26z m2472 -119
c9 -13 17 -39 18 -57 1 -32 0 -33 -56 -42 -32 -4 -58 -12 -58 -17 0 -5 -13 -6
-30 -2 -19 3 -30 1 -30 -6 0 -6 5 -11 10 -11 7 0 7 -6 0 -19 -7 -14 -7 -22 0
-26 19 -12 0 -23 -27 -16 -14 4 -27 15 -29 25 -4 26 -9 28 -39 14 -23 -10 -29
-10 -33 0 -2 6 -12 12 -23 12 -26 0 -24 16 6 42 14 12 25 31 25 44 0 12 7 27
15 34 12 10 16 8 25 -14 5 -15 19 -36 30 -49 l21 -22 5 22 c4 13 11 20 20 16
13 -5 94 72 94 89 0 18 41 6 56 -17z m-2509 -62 c-4 -20 -10 -39 -15 -42 -5
-3 -8 -29 -8 -58 0 -33 -6 -59 -16 -70 -8 -10 -18 -25 -20 -33 -3 -8 -8 31
-13 88 -8 117 3 152 52 152 24 0 25 -2 20 -37z m2153 -14 c16 -30 13 -41 -10
-29 -10 6 -23 10 -27 9 -23 -4 -32 2 -26 19 13 35 45 36 63 1z m-2473 -85 c-3
-3 -12 -4 -19 -1 -8 3 -5 6 6 6 11 1 17 -2 13 -5z m-992 -63 c-16 -7 -12 -10
23 -15 42 -8 52 -18 31 -32 -15 -9 9 -24 39 -24 35 0 16 -20 -21 -22 -26 -1
-23 -2 13 -7 l45 -6 -3 -39 c-3 -25 1 -42 10 -47 11 -7 10 -11 -2 -19 -17 -11
-17 -11 23 -14 17 -1 32 5 37 14 6 9 10 11 10 3 0 -7 9 -13 21 -13 11 0 17 -5
14 -10 -4 -6 -11 -8 -16 -4 -5 3 -16 0 -24 -6 -8 -7 -26 -9 -40 -6 -14 4 -25
2 -25 -4 0 -5 -13 -10 -29 -10 -17 0 -32 -4 -35 -8 -3 -5 25 -8 61 -8 44 1 67
-3 70 -11 3 -8 -4 -13 -16 -13 -38 0 -33 -20 6 -21 l38 -2 -34 -6 c-25 -4 -35
-12 -38 -29 -2 -13 3 -25 12 -28 21 -8 19 -27 -5 -42 -11 -7 -20 -22 -21 -35
0 -12 -3 -16 -6 -9 -7 18 -33 14 -33 -5 0 -14 2 -15 9 -5 6 11 9 9 13 -5 4
-13 0 -19 -13 -20 -11 -1 -19 2 -19 7 0 4 -8 7 -17 5 -13 -1 -17 -10 -15 -28
3 -33 -24 -78 -44 -70 -9 3 -14 -1 -14 -12 0 -11 -5 -15 -15 -11 -9 3 -15 0
-15 -9 0 -8 -4 -15 -10 -15 -5 0 -10 6 -10 13 0 9 -2 9 -9 -1 -7 -11 -9 -11
-14 2 -4 9 -10 16 -14 15 -20 -3 -33 2 -33 14 0 8 -9 24 -19 36 -11 13 -18 28
-15 36 3 7 -2 15 -10 18 -9 4 -16 13 -16 22 0 8 -4 15 -10 15 -5 0 -10 9 -10
21 0 12 -8 23 -20 26 -21 6 -29 25 -8 21 13 -3 19 23 19 84 0 21 4 40 9 43 6
3 5 16 0 30 -8 21 -6 25 8 25 16 1 16 1 0 14 -24 18 -23 29 2 16 16 -9 20 -8
20 5 0 9 -4 13 -10 10 -14 -9 -12 19 3 34 10 10 8 11 -7 5 -13 -5 -17 -4 -12
4 4 6 -4 12 -21 15 -16 2 -6 5 24 6 28 0 53 6 55 11 2 7 15 7 38 0 20 -6 36
-6 38 -1 2 5 13 7 25 5 12 -2 17 -2 10 2 -8 4 -9 13 -3 29 11 29 5 33 -37 30
-18 -1 -33 1 -33 4 0 9 72 39 95 39 l20 1 -20 -8z m-195 -161 c0 -5 -2 -10 -4
-10 -3 0 -8 5 -11 10 -3 6 -1 10 4 10 6 0 11 -4 11 -10z m363 -25 c-3 -9 -8
-14 -10 -11 -3 3 -2 9 2 15 9 16 15 13 8 -4z m865 -56 c-2 -7 -10 -4 -18 7 -9
11 -10 15 -2 10 7 -4 12 -2 13 6 0 10 2 10 6 1 2 -7 3 -18 1 -24z m2892 -44
c0 -8 -9 -15 -20 -15 -22 0 -27 15 -7 23 21 9 27 7 27 -8z m-4140 -9 c0 -3 -4
-8 -10 -11 -5 -3 -10 -1 -10 4 0 6 5 11 10 11 6 0 10 -2 10 -4z m-10 -77 c0
-11 -4 -18 -10 -14 -5 3 -7 12 -3 20 7 21 13 19 13 -6z m3310 -27 c0 -48 12
-72 41 -88 44 -22 63 -67 55 -133 -17 -155 -37 -280 -61 -362 -11 -42 -11 -50
7 -77 12 -20 15 -33 8 -37 -5 -3 -10 -21 -10 -38 l0 -32 -19 24 c-34 45 -82
173 -93 251 -10 65 -9 101 5 207 9 70 19 166 22 212 4 80 17 117 36 105 5 -3
9 -17 9 -32z m-2940 -143 c0 -5 -9 -9 -20 -9 -22 0 -27 16 -7 23 15 5 27 -1
27 -14z m-42 -31 c-6 -18 -28 -21 -28 -4 0 9 7 16 16 16 9 0 14 -5 12 -12z
m-193 -58 c3 -5 -1 -10 -9 -10 -9 0 -16 5 -16 10 0 6 4 10 9 10 6 0 13 -4 16
-10z m1255 -624 c0 -8 -3 -21 -6 -30 -5 -13 -9 -12 -25 8 -25 31 -24 36 6 36
15 0 25 -6 25 -14z m2147 -123 c30 -20 37 -44 18 -62 -15 -15 -18 -14 -34 8
-11 14 -27 38 -36 54 -17 29 -17 29 6 22 13 -5 34 -14 46 -22z m250 -172 c20
-6 35 -6 38 0 4 5 21 9 38 8 28 0 30 -1 10 -9 -15 -6 -20 -15 -16 -29 3 -12 9
-21 14 -21 5 0 4 -10 -2 -23 -8 -17 -34 -32 -97 -56 -94 -34 -242 -57 -253
-39 -17 26 148 158 197 158 8 0 14 5 14 10 0 12 16 13 57 1z m-4964 -216 c3
-16 6 -34 7 -40 6 -25 0 -37 -13 -27 -7 6 -14 36 -15 69 -2 59 11 58 21 -2z
m2181 -127 c0 -16 -1 -77 -2 -138 -2 -129 17 -116 -183 -125 l-136 -6 -37 75
c-33 68 -37 82 -34 143 l3 68 135 6 c74 3 162 5 195 5 59 -1 60 -2 59 -28z
m-1301 -365 c-13 -2 -33 -2 -45 0 -13 2 -3 4 22 4 25 0 35 -2 23 -4z m-230
-30 c-7 -2 -19 -2 -25 0 -7 3 -2 5 12 5 14 0 19 -2 13 -5z"/>
<path d="M8070 5920 c-13 -8 -13 -11 3 -27 16 -16 17 -16 17 10 0 30 0 30 -20
17z"/>
<path d="M8180 5722 c0 -15 5 -19 20 -15 24 6 21 26 -3 31 -11 2 -17 -3 -17
-16z"/>
<path d="M8210 5680 c0 -6 -22 -26 -50 -46 -35 -25 -50 -43 -50 -59 0 -12 -7
-28 -15 -35 -8 -7 -15 -21 -15 -31 0 -10 -4 -21 -10 -24 -18 -11 -11 -23 18
-31 36 -10 72 -12 72 -3 0 4 9 9 19 12 12 3 23 19 30 42 6 21 20 49 33 62 18
19 20 26 9 32 -10 6 -10 10 -1 16 14 8 4 56 -13 67 -17 11 -27 10 -27 -2z"/>
<path d="M8278 5623 c7 -3 16 -2 19 1 4 3 -2 6 -13 5 -11 0 -14 -3 -6 -6z"/>
<path d="M7068 4023 c6 -2 18 -2 25 0 6 3 1 5 -13 5 -14 0 -19 -2 -12 -5z"/>
<path d="M5635 4412 c2 -3 0 -10 -5 -17 -6 -8 -5 -18 6 -31 8 -10 13 -13 9 -6
-5 11 6 17 28 13 4 0 7 7 7 18 0 12 -9 20 -25 24 -14 2 -23 2 -20 -1z"/>
<path d="M8010 2470 c19 -13 30 -13 30 0 0 6 -10 10 -22 10 -19 0 -20 -2 -8
-10z"/>
<path d="M7950 2440 c0 -5 7 -10 15 -10 8 0 15 5 15 10 0 6 -7 10 -15 10 -8 0
-15 -4 -15 -10z"/>
<path d="M4330 2294 c0 -8 4 -13 9 -9 13 7 24 -12 15 -26 -4 -8 -9 -7 -16 2
-7 11 -8 9 -6 -5 2 -11 11 -20 21 -22 14 -2 17 5 17 37 0 32 -3 39 -20 39 -11
0 -20 -7 -20 -16z"/>
<path d="M4370 2156 c0 -2 7 -7 16 -10 8 -3 12 -2 9 4 -6 10 -25 14 -25 6z"/>
<path d="M4330 2119 c0 -5 5 -7 10 -4 6 3 10 8 10 11 0 2 -4 4 -10 4 -5 0 -10
-5 -10 -11z"/>
<path d="M4370 2120 c0 -5 5 -10 10 -10 6 0 10 5 10 10 0 6 -4 10 -10 10 -5 0
-10 -4 -10 -10z"/>
<path d="M4172 1960 c0 -14 2 -19 5 -12 2 6 2 18 0 25 -3 6 -5 1 -5 -13z"/>
<path d="M4292 1833 c9 -2 19 -12 21 -21 4 -16 5 -16 6 0 0 9 11 19 24 21 12
2 2 4 -23 4 -25 1 -37 -1 -28 -4z"/>
<path d="M11828 7103 c-1 -54 -2 -118 -3 -143 -1 -51 -6 -638 -6 -687 1 -34
29 -68 69 -84 15 -6 22 -17 22 -34 0 -42 30 -62 106 -70 45 -5 72 -13 80 -24
7 -9 14 -14 17 -11 2 3 7 263 10 578 l5 572 -149 0 -149 0 -2 -97z"/>
<path d="M12287 7187 c-3 -8 -6 -137 -6 -288 -1 -151 -4 -445 -7 -654 l-7
-380 43 -39 42 -39 -6 -66 c-3 -36 -10 -91 -15 -121 -5 -30 -10 -94 -10 -142
-1 -66 -7 -104 -27 -160 -14 -40 -27 -78 -29 -84 -2 -6 -6 -137 -10 -290 -8
-381 -9 -424 -4 -428 8 -6 235 -56 256 -56 12 0 29 -8 39 -17 19 -20 39 -26
74 -23 14 1 60 2 103 3 l77 2 0 136 c0 139 -7 165 -39 150 -45 -23 -85 -31
-92 -19 -4 7 -5 16 -3 20 3 4 -1 8 -10 8 -8 0 -17 -6 -19 -12 -4 -10 -6 -10
-6 0 -1 6 -7 12 -15 12 -8 0 -17 6 -19 13 -4 9 -8 9 -15 -1 -5 -8 -12 -13 -16
-13 -23 3 -30 0 -18 -8 22 -14 -5 -19 -73 -13 -50 3 -61 7 -62 22 -1 13 3 17
14 13 13 -5 13 -3 4 15 -6 11 -7 23 -2 26 4 3 6 17 3 31 -3 20 0 25 17 25 15
0 21 6 22 23 2 54 15 76 45 77 15 0 26 28 14 35 -5 3 -6 21 -3 40 4 28 2 35
-11 35 -9 0 -16 5 -16 10 0 6 4 10 9 10 4 0 7 16 5 36 -1 20 3 45 9 55 8 13 8
24 0 42 -6 13 -9 44 -6 68 3 33 2 40 -6 29 -16 -23 -14 6 3 33 7 12 14 39 15
60 0 21 2 41 5 45 2 4 5 286 6 627 2 612 7 795 19 795 12 -1 41 -71 41 -98 0
-15 -7 -52 -16 -82 -22 -77 -33 -1250 -12 -1319 l13 -44 108 -5 107 -4 0 743
c0 408 -3 740 -6 736 -3 -3 -6 -31 -5 -62 l0 -56 -39 3 c-28 1 -40 6 -40 17 0
9 -4 22 -9 30 -8 12 -12 12 -25 2 -14 -11 -16 -11 -16 3 0 9 7 30 15 46 8 16
12 35 9 43 -3 9 2 29 10 46 9 16 16 39 16 51 0 26 27 37 44 19 7 -8 19 -34 27
-59 l14 -45 3 84 c2 46 2 85 0 86 -5 5 -90 -12 -159 -31 -37 -10 -73 -14 -84
-10 -29 11 -8 20 127 57 l118 32 0 94 0 93 -254 0 c-204 0 -255 -3 -259 -13z
m227 -1733 c8 -3 12 -12 9 -20 -4 -11 -9 -12 -19 -3 -7 6 -18 8 -24 4 -5 -3
-10 -2 -10 4 0 5 6 12 13 14 6 3 13 6 14 6 1 1 8 -2 17 -5z m-54 -254 c0 -9
-7 -26 -16 -38 -8 -12 -13 -31 -9 -41 3 -11 1 -22 -5 -26 -11 -7 -14 94 -4
133 6 21 7 21 20 5 7 -10 14 -25 14 -33z m28 26 c-7 -8 -15 -12 -17 -11 -5 6
10 25 20 25 5 0 4 -6 -3 -14z m292 -560 c0 -9 -39 -13 -51 -5 -10 6 -4 9 19 9
17 0 32 -2 32 -4z"/>
<path d="M7325 7120 c-3 -5 -1 -10 4 -10 6 0 11 5 11 10 0 6 -2 10 -4 10 -3 0
-8 -4 -11 -10z"/>
<path d="M1819 7098 c-15 -50 -17 -102 -5 -140 11 -40 36 -52 36 -18 0 11 5
20 10 20 6 0 9 -12 8 -27 -2 -20 -11 -31 -31 -38 l-28 -10 26 -35 c14 -18 25
-42 25 -52 0 -20 16 -23 40 -9 20 14 33 2 18 -17 -11 -13 -11 -14 2 -10 17 5
27 48 11 48 -17 0 -13 17 7 24 9 4 32 15 51 25 31 16 34 22 34 62 l0 44 -39 1
c-21 0 -49 3 -61 8 -24 8 -32 26 -12 26 6 0 9 9 6 19 -3 14 -1 18 9 14 26 -10
14 4 -26 31 -31 20 -40 23 -40 11 0 -9 9 -15 23 -15 17 0 19 -2 7 -10 -9 -5
-19 -5 -24 0 -4 4 -15 6 -22 3 -8 -3 -14 0 -14 7 0 6 5 8 10 5 6 -3 10 3 10
14 0 12 -7 21 -15 21 -8 0 -15 -1 -16 -2z m191 -160 c0 -12 -1 -19 -3 -17 -1
2 -9 12 -16 22 -12 14 -11 17 3 17 10 0 16 -8 16 -22z m-95 -8 c3 -5 1 -10 -4
-10 -6 0 -11 5 -11 10 0 6 2 10 4 10 3 0 8 -4 11 -10z m-5 -110 c0 -14 -6 -20
-22 -19 -17 1 -19 2 -5 6 9 2 17 11 17 19 0 8 2 14 5 14 3 0 5 -9 5 -20z"/>
<path d="M7473 7070 c-1 -13 4 -20 17 -20 13 0 17 5 13 20 -3 11 -11 20 -17
20 -6 0 -12 -9 -13 -20z"/>
<path d="M7420 7060 c0 -5 5 -10 10 -10 6 0 10 5 10 10 0 6 -4 10 -10 10 -5 0
-10 -4 -10 -10z"/>
<path d="M6720 7050 c0 -5 7 -10 16 -10 8 0 12 5 9 10 -3 6 -10 10 -16 10 -5
0 -9 -4 -9 -10z"/>
<path d="M1970 7040 c-12 -8 -11 -10 8 -10 12 0 22 5 22 10 0 13 -11 13 -30 0z"/>
<path d="M7338 7033 c7 -3 16 -2 19 1 4 3 -2 6 -13 5 -11 0 -14 -3 -6 -6z"/>
<path d="M7386 7010 c1 -31 14 -56 14 -27 0 22 16 30 32 15 38 -36 48 -41 48
-23 0 9 -9 19 -20 22 -11 3 -20 11 -20 19 0 8 -6 11 -15 8 -8 -4 -15 -1 -15 5
0 6 -6 11 -12 11 -8 0 -13 -12 -12 -30z"/>
<path d="M1955 7010 c-4 -6 -3 -16 3 -22 6 -6 12 -6 17 2 4 6 3 16 -3 22 -6 6
-12 6 -17 -2z"/>
<path d="M6742 7008 c6 -18 28 -21 28 -4 0 9 -7 16 -16 16 -9 0 -14 -5 -12
-12z"/>
<path d="M6716 6974 c1 -6 -3 -17 -9 -23 -9 -9 -8 -14 3 -21 20 -13 53 -13 45
0 -3 6 -13 10 -21 10 -8 0 -14 4 -14 8 0 5 14 6 31 4 22 -3 30 -1 25 7 -4 6
-18 11 -31 11 -13 0 -25 3 -28 8 -2 4 -3 2 -1 -4z"/>
<path d="M7538 6963 c-10 -2 -18 -9 -18 -14 0 -13 12 -11 34 6 20 15 16 17
-16 8z"/>
<path d="M6665 6920 c-3 -5 1 -10 10 -10 9 0 13 5 10 10 -3 6 -8 10 -10 10 -2
0 -7 -4 -10 -10z"/>
<path d="M7355 6820 c-3 -5 -2 -10 4 -10 5 0 13 5 16 10 3 6 2 10 -4 10 -5 0
-13 -4 -16 -10z"/>
<path d="M1957 6789 c7 -7 15 -10 18 -7 3 3 -2 9 -12 12 -14 6 -15 5 -6 -5z"/>
<path d="M7291 6791 c-22 -14 -3 -31 35 -31 25 0 34 4 34 17 0 13 -3 14 -12 5
-9 -9 -15 -8 -28 3 -9 8 -21 11 -29 6z"/>
<path d="M7380 6760 c0 -5 5 -10 10 -10 6 0 10 5 10 10 0 6 -4 10 -10 10 -5 0
-10 -4 -10 -10z"/>
<path d="M7570 6625 c7 -8 16 -15 21 -15 5 0 6 7 3 15 -4 8 -13 15 -21 15 -13
0 -13 -3 -3 -15z"/>
<path d="M7181 6587 c-6 -6 -11 -19 -11 -29 0 -10 -4 -18 -10 -18 -5 0 -10 -4
-10 -10 0 -5 7 -10 15 -10 7 0 19 -8 24 -17 10 -17 10 -17 11 -1 0 22 30 58
47 58 7 0 13 7 13 15 0 18 -12 19 -27 4 -7 -7 -15 -6 -25 5 -11 11 -18 12 -27
3z"/>
<path d="M7300 6591 c0 -11 31 -24 39 -16 3 3 -1 10 -9 15 -19 12 -30 12 -30
1z"/>
<path d="M4890 6555 l-25 -15 31 6 c23 4 43 -2 81 -25 28 -17 61 -31 73 -31
23 0 23 0 5 20 -21 23 -98 60 -124 60 -9 -1 -27 -7 -41 -15z"/>
<path d="M4691 6453 c0 -25 1 -26 9 -8 12 27 12 35 0 35 -5 0 -10 -12 -9 -27z"/>
<path d="M4905 6470 c-3 -6 1 -7 9 -4 18 7 21 14 7 14 -6 0 -13 -4 -16 -10z"/>
<path d="M5005 6460 c6 -10 -1 -11 -29 -6 -39 7 -96 0 -96 -13 0 -7 54 -29 90
-36 14 -3 20 1 20 13 1 16 1 16 11 0 13 -22 35 -23 43 -2 7 19 1 31 -26 45
-16 9 -19 8 -13 -1z"/>
<path d="M7360 6444 c0 -8 5 -12 10 -9 6 3 10 10 10 16 0 5 -4 9 -10 9 -5 0
-10 -7 -10 -16z"/>
<path d="M4662 6380 c-18 -72 -75 -243 -89 -270 -7 -14 -25 -50 -39 -80 -32
-70 -60 -121 -75 -138 -6 -8 -11 -31 -11 -53 1 -36 -3 -42 -33 -56 -33 -16
-35 -16 -54 8 -18 21 -22 22 -32 9 -9 -13 -10 -12 -5 3 9 29 -4 40 -25 21 -17
-15 -19 -15 -25 0 -3 9 -10 16 -14 16 -10 0 -25 -40 -21 -55 1 -5 -9 1 -23 14
-14 14 -26 33 -26 43 0 37 -19 16 -29 -33 -6 -29 -10 -53 -9 -54 4 -3 121 -23
138 -24 105 -3 221 -75 235 -146 8 -40 65 -176 81 -194 7 -8 29 -14 50 -13 61
2 102 23 132 67 23 34 28 53 32 130 l5 90 47 -70 c36 -55 54 -72 82 -81 19 -6
33 -7 29 -2 -3 5 3 9 13 8 53 -6 59 10 15 36 -17 10 -27 22 -24 27 3 5 0 7 -8
5 -18 -6 -114 96 -129 137 -6 17 -23 55 -37 85 -14 30 -27 79 -30 110 l-6 55
33 -45 c49 -68 92 -110 112 -110 10 0 18 2 18 4 0 2 -30 33 -66 68 -80 76
-123 160 -131 255 -4 47 -10 62 -23 66 -12 3 -19 20 -24 58 -4 30 -10 77 -14
104 l-8 50 -12 -45z"/>
<path d="M7371 6381 c-11 -7 -10 -11 7 -20 22 -12 39 0 27 19 -8 12 -16 12
-34 1z"/>
<path d="M3740 6335 c0 -14 5 -25 11 -25 7 0 9 -9 5 -22 -4 -17 1 -28 17 -40
18 -14 20 -19 10 -29 -7 -7 -13 -23 -13 -36 0 -13 -6 -23 -14 -23 -7 0 -16
-14 -19 -32 -11 -68 -24 -88 -57 -88 -29 0 -30 -1 -16 -16 9 -8 16 -21 16 -27
0 -7 4 -6 10 3 8 13 10 12 10 -2 0 -10 -5 -18 -10 -18 -6 0 -14 -10 -19 -22
-8 -21 -10 -20 -30 19 -20 41 -22 42 -52 31 -24 -8 -37 -8 -50 1 -11 6 -19 7
-19 2 0 -5 18 -18 40 -30 22 -12 58 -31 81 -42 22 -12 50 -34 61 -50 17 -22
25 -26 39 -19 10 6 20 6 23 2 5 -9 18 -73 38 -199 7 -40 16 -73 21 -73 4 0 5
-4 2 -10 -3 -5 -1 -10 5 -10 6 0 8 -4 5 -10 -3 -5 -15 -10 -26 -10 -35 0 -15
-25 23 -28 40 -3 113 22 104 37 -4 5 -1 13 5 17 8 4 9 3 5 -4 -4 -7 -4 -12 1
-12 13 1 36 23 62 59 17 25 20 36 11 44 -8 9 -10 8 -4 -6 5 -14 2 -16 -12 -11
-16 5 -16 4 -4 -5 8 -6 10 -11 4 -11 -6 0 -17 7 -24 15 -10 12 -10 15 0 15 10
0 9 5 -2 18 -8 9 -20 32 -26 50 -10 30 -9 35 6 39 9 2 24 21 33 42 14 32 14
44 4 75 -7 20 -13 38 -13 39 -5 29 -25 57 -42 57 -11 0 -20 -4 -20 -10 0 -5
-7 -10 -15 -10 -9 0 -18 -6 -21 -14 -8 -20 -53 -29 -70 -15 -18 15 -18 59 0
84 7 11 16 33 20 48 4 16 17 33 31 39 29 13 30 16 9 46 -8 12 -13 26 -10 31 3
4 -3 25 -14 45 -10 21 -16 44 -13 52 3 9 -2 14 -16 14 -14 0 -21 6 -21 18 0
23 -19 42 -42 42 -13 0 -18 -8 -18 -25z m35 -355 c16 -17 16 -20 3 -15 -9 4
-19 13 -22 21 -7 19 -2 18 19 -6z"/>
<path d="M6636 6322 c-3 -4 4 -9 15 -9 23 -2 25 3 4 10 -8 4 -16 3 -19 -1z"/>
<path d="M6620 6286 c0 -2 7 -7 16 -10 8 -3 12 -2 9 4 -6 10 -25 14 -25 6z"/>
<path d="M6680 6270 c0 -5 5 -10 10 -10 6 0 10 5 10 10 0 6 -4 10 -10 10 -5 0
-10 -4 -10 -10z"/>
<path d="M6606 6244 c13 -10 15 -17 7 -20 -8 -4 -6 -11 8 -25 27 -27 36 -24
41 14 3 30 1 33 -19 29 -13 -2 -23 1 -23 7 0 6 -8 11 -17 11 -15 0 -14 -2 3
-16z"/>
<path d="M6738 6243 c7 -3 16 -2 19 1 4 3 -2 6 -13 5 -11 0 -14 -3 -6 -6z"/>
<path d="M4905 6220 c-10 -11 -15 -20 -11 -20 4 0 16 9 28 20 12 11 17 20 11
20 -5 0 -18 -9 -28 -20z"/>
<path d="M7060 6220 c0 -5 9 -10 21 -10 11 0 17 5 14 10 -3 6 -13 10 -21 10
-8 0 -14 -4 -14 -10z"/>
<path d="M5176 6202 c-4 -7 -16 -10 -26 -7 -10 3 -37 -4 -60 -16 -37 -20 -40
-24 -26 -34 25 -18 19 -25 -16 -19 -18 2 -63 7 -100 11 -60 5 -68 8 -68 27 0
17 -2 18 -10 6 -17 -26 -12 -34 38 -65 62 -39 71 -42 49 -17 -18 20 -18 20 0
24 10 2 34 0 53 -5 19 -5 47 -11 63 -14 15 -3 27 -9 27 -14 0 -5 7 -9 15 -9
24 0 17 -30 -7 -31 -15 -1 -11 -4 12 -9 l35 -7 -40 -17 c-26 -12 -53 -16 -80
-13 -24 4 -34 2 -25 -3 16 -9 67 -14 113 -11 15 0 41 14 59 31 17 17 34 30 39
30 4 0 15 7 23 16 19 18 11 38 -11 30 -9 -4 -21 -2 -27 4 -7 5 -37 16 -67 23
-52 14 -53 15 -23 21 33 7 78 50 71 69 -2 8 -6 7 -11 -1z"/>
<path d="M6497 6203 c-12 -12 -7 -23 11 -23 9 0 22 -10 27 -22 6 -12 15 -23
22 -25 9 -3 9 3 0 29 -6 18 -12 34 -12 34 -1 6 -43 13 -48 7z"/>
<path d="M7068 6183 c-10 -2 -18 -10 -18 -16 0 -7 -4 -6 -10 3 -6 10 -10 11
-10 3 0 -16 -37 -17 -42 -2 -7 20 -36 -2 -31 -24 4 -16 2 -18 -5 -8 -5 7 -15
10 -22 6 -7 -4 -16 -2 -20 5 -6 9 -13 7 -29 -9 -11 -11 -25 -21 -29 -21 -5 0
-19 -9 -31 -19 -15 -13 -18 -21 -11 -26 7 -4 10 -18 7 -31 -3 -19 -2 -22 9
-13 7 6 17 8 23 5 5 -3 22 1 37 9 16 8 37 15 46 15 9 0 23 12 30 28 11 21 21
27 48 28 19 0 43 -3 53 -8 11 -5 17 -5 17 2 0 5 9 10 20 10 14 0 18 -5 13 -17
-4 -11 -3 -14 5 -9 7 4 12 14 12 22 0 8 10 14 23 15 l22 0 -23 9 c-13 6 -32 6
-47 0 -15 -6 -26 -6 -30 0 -4 6 0 13 9 16 8 3 17 12 20 20 5 14 -3 16 -36 7z
m-120 -87 c2 -9 -1 -16 -7 -16 -6 0 -11 5 -11 12 0 9 -3 9 -12 0 -17 -17 -28
-15 -28 7 0 15 6 19 28 17 15 -2 28 -10 30 -20z m-108 -16 c0 -5 -2 -10 -4
-10 -3 0 -8 5 -11 10 -3 6 -1 10 4 10 6 0 11 -4 11 -10z"/>
<path d="M6710 6164 c0 -8 5 -12 10 -9 6 3 10 10 10 16 0 5 -4 9 -10 9 -5 0
-10 -7 -10 -16z"/>
<path d="M6390 6150 c0 -5 -7 -10 -15 -10 -8 0 -15 -4 -15 -10 0 -11 53 -14
63 -3 8 7 -11 33 -24 33 -5 0 -9 -4 -9 -10z"/>
<path d="M6510 6106 c0 -19 -17 -21 -22 -4 -3 7 -7 3 -10 -9 -3 -11 -2 -27 3
-34 7 -11 9 -10 9 4 0 9 4 17 9 17 17 0 21 -18 11 -44 -7 -21 -6 -26 5 -26 10
0 16 12 17 35 1 19 2 43 2 52 1 9 -5 18 -11 21 -7 2 -13 -3 -13 -12z"/>
<path d="M6609 6120 c-1 -3 -3 -15 -4 -27 -2 -18 2 -22 26 -20 29 2 42 17 14
17 -7 0 -19 8 -24 18 -6 9 -11 15 -12 12z"/>
<path d="M3871 6077 l-25 -32 32 29 c33 31 37 36 25 35 -5 0 -19 -14 -32 -32z"/>
<path d="M6321 6084 c-12 -14 -11 -16 4 -12 10 1 20 9 23 16 5 17 -10 15 -27
-4z"/>
<path d="M6383 6093 c9 -2 17 -11 17 -19 0 -8 9 -14 20 -14 11 0 20 4 20 8 0
16 -25 32 -49 31 -17 -1 -20 -3 -8 -6z"/>
<path d="M7139 6043 c-1 -4 -1 -12 0 -17 1 -5 -5 -6 -14 -3 -9 4 -15 1 -15 -8
0 -8 -6 -15 -12 -15 -8 0 -5 -7 6 -15 17 -13 22 -13 36 0 9 8 22 15 29 15 19
0 9 44 -11 48 -10 2 -19 0 -19 -5z"/>
<path d="M6470 6025 c0 -8 4 -15 10 -15 5 0 7 7 4 15 -4 8 -8 15 -10 15 -2 0
-4 -7 -4 -15z"/>
<path d="M6380 6000 c-13 -8 -12 -10 3 -10 9 0 17 -5 17 -12 0 -6 3 -9 6 -5 3
3 2 12 -3 21 -6 10 -13 12 -23 6z"/>
<path d="M6430 5959 c0 -5 5 -7 10 -4 6 3 10 8 10 11 0 2 -4 4 -10 4 -5 0 -10
-5 -10 -11z"/>
<path d="M6400 5950 c0 -5 5 -10 11 -10 5 0 7 5 4 10 -3 6 -8 10 -11 10 -2 0
-4 -4 -4 -10z"/>
<path d="M6890 5910 c0 -5 -10 -10 -22 -10 -13 0 -45 -6 -73 -13 -38 -10 -50
-18 -50 -33 0 -28 -39 -30 -58 -3 -9 12 -20 18 -27 14 -7 -4 -14 1 -17 14 -6
25 -20 27 -45 4 -16 -14 -24 -15 -52 -5 -47 17 -52 15 -26 -13 23 -24 16 -37
-8 -13 -9 9 -15 9 -24 -3 -7 -8 -21 -21 -31 -28 -15 -12 -17 -12 -11 4 6 15 3
17 -19 11 -19 -4 -27 -2 -27 6 0 8 -5 5 -11 -5 -11 -19 -3 -41 11 -32 18 11
61 -7 58 -24 -1 -9 5 -27 14 -40 17 -24 20 -25 163 -25 118 0 148 3 155 14 6
9 10 10 10 3 0 -7 27 -13 78 -15 l77 -3 -3 33 c-4 33 -22 56 -22 28 0 -9 -4
-16 -10 -16 -13 0 -13 6 2 47 14 37 22 41 37 16 9 -16 10 -15 11 6 0 13 -3 21
-7 18 -3 -4 -12 -2 -19 4 -17 14 -45 4 -39 -13 3 -8 -1 -22 -9 -33 -10 -13
-15 -15 -16 -6 0 10 -3 11 -14 2 -10 -9 -16 -9 -21 -1 -4 7 2 14 14 17 12 3
21 13 21 23 0 23 24 42 44 34 19 -7 22 16 4 34 -15 15 -38 16 -38 2z m-250
-50 c0 -5 -4 -10 -10 -10 -5 0 -10 5 -10 10 0 6 5 10 10 10 6 0 10 -4 10 -10z
m181 -20 c11 0 17 -4 14 -10 -8 -13 -36 -13 -55 0 -13 9 -13 11 0 20 10 6 16
6 18 0 2 -6 13 -10 23 -10z m-268 -17 c-7 -2 -21 -2 -30 0 -10 3 -4 5 12 5 17
0 24 -2 18 -5z m57 -3 c8 -5 11 -12 7 -16 -4 -4 -15 0 -24 9 -18 18 -8 23 17
7z m184 -6 c28 -11 17 -20 -19 -16 -19 2 -32 8 -29 13 6 10 26 12 48 3z m-261
-21 c-13 -2 -33 -2 -45 0 -13 2 -3 4 22 4 25 0 35 -2 23 -4z m-53 -23 c0 -5
-5 -10 -11 -10 -5 0 -7 5 -4 10 3 6 8 10 11 10 2 0 4 -4 4 -10z m425 -31 c-10
-15 -22 -10 -28 11 -4 17 -2 18 14 9 11 -5 17 -14 14 -20z"/>
<path d="M6410 5890 c0 -5 5 -10 11 -10 5 0 7 5 4 10 -3 6 -8 10 -11 10 -2 0
-4 -4 -4 -10z"/>
<path d="M10602 5815 c0 -16 2 -22 5 -12 2 9 2 23 0 30 -3 6 -5 -1 -5 -18z"/>
<path d="M4053 5780 c0 -25 2 -35 4 -22 2 12 2 32 0 45 -2 12 -4 2 -4 -23z"/>
<path d="M4425 5810 c-3 -5 -1 -10 4 -10 6 0 11 5 11 10 0 6 -2 10 -4 10 -3 0
-8 -4 -11 -10z"/>
<path d="M11953 5793 c-3 -7 -11 -13 -19 -13 -8 0 -14 -2 -14 -5 0 -14 38 -43
63 -47 29 -6 45 6 26 18 -8 4 -7 9 2 15 11 7 9 10 -9 15 -13 4 -21 12 -19 19
3 6 -2 12 -10 12 -8 0 -17 -6 -20 -14z"/>
<path d="M6328 5793 c7 -3 16 -2 19 1 4 3 -2 6 -13 5 -11 0 -14 -3 -6 -6z"/>
<path d="M5910 5781 c0 -6 4 -13 10 -16 6 -3 7 1 4 9 -7 18 -14 21 -14 7z"/>
<path d="M6960 5764 c0 -22 3 -23 20 -14 11 6 20 15 20 19 0 5 -9 11 -20 14
-16 4 -20 0 -20 -19z"/>
<path d="M6380 5769 c0 -5 5 -7 10 -4 6 3 10 8 10 11 0 2 -4 4 -10 4 -5 0 -10
-5 -10 -11z"/>
<path d="M12099 5761 c7 -5 11 -13 7 -19 -3 -6 -2 -13 4 -17 5 -3 10 3 10 14
0 10 6 22 13 24 6 3 -1 6 -18 6 -21 0 -26 -2 -16 -8z"/>
<path d="M6411 5742 c-15 -28 -14 -32 8 -32 27 0 36 19 18 37 -13 14 -16 13
-26 -5z"/>
<path d="M5945 5720 c-3 -5 -2 -10 4 -10 5 0 13 5 16 10 3 6 2 10 -4 10 -5 0
-13 -4 -16 -10z"/>
<path d="M5911 5694 c0 -11 3 -14 6 -6 3 7 2 16 -1 19 -3 4 -6 -2 -5 -13z"/>
<path d="M1091 5603 c-8 -9 -16 -11 -20 -5 -4 7 -13 5 -26 -5 -19 -14 -18 -14
14 -9 32 4 60 21 50 30 -2 2 -10 -3 -18 -11z"/>
<path d="M1136 5606 c3 -9 13 -16 22 -16 8 0 13 1 11 3 -2 1 -12 9 -22 16 -15
12 -17 12 -11 -3z"/>
<path d="M4236 5299 c-21 -44 -40 -78 -43 -75 -2 2 5 23 16 47 12 23 21 49 21
56 0 30 -20 8 -53 -59 -28 -56 -36 -67 -37 -47 0 29 -16 39 -58 39 -25 0 -25
-1 -7 -14 19 -13 18 -14 -6 -9 -22 4 -26 1 -24 -17 1 -12 15 -30 33 -42 38
-24 46 -46 37 -104 -6 -42 -5 -44 19 -44 14 0 26 -5 26 -11 0 -27 34 1 49 41
10 25 23 44 29 42 7 -1 17 8 22 20 16 39 62 240 56 246 -3 3 -6 -2 -6 -12 0
-21 -39 -100 -46 -93 -3 3 -1 29 4 58 6 30 9 55 9 56 -1 1 -20 -34 -41 -78z"/>
<path d="M4220 5360 c0 -5 5 -10 11 -10 5 0 7 5 4 10 -3 6 -8 10 -11 10 -2 0
-4 -4 -4 -10z"/>
<path d="M4119 5344 c-7 -9 -21 -13 -32 -10 -22 6 -87 -39 -87 -60 0 -24 22
-27 49 -6 17 12 33 17 42 12 28 -15 59 -21 59 -11 0 5 -12 11 -27 13 -14 2
-28 9 -31 17 -3 10 2 11 19 6 17 -4 20 -4 10 3 -12 9 -12 13 2 27 16 16 21 25
13 25 -2 0 -9 -7 -17 -16z"/>
<path d="M2591 5292 c-6 -2 -11 -12 -11 -23 0 -14 7 -19 30 -19 30 0 41 14 18
23 -10 4 -10 6 0 6 6 1 12 5 12 10 0 9 -25 11 -49 3z"/>
<path d="M2655 5260 c-3 -5 -2 -10 4 -10 5 0 13 5 16 10 3 6 2 10 -4 10 -5 0
-13 -4 -16 -10z"/>
<path d="M12710 5253 c-47 -2 -89 -9 -95 -14 -7 -7 16 -8 72 -3 61 5 87 3 98
-6 13 -10 15 -9 15 9 0 11 -1 20 -2 19 -2 -1 -41 -4 -88 -5z"/>
<path d="M12535 5229 c-4 -6 -4 -13 -1 -16 3 -4 6 -1 6 5 0 6 7 9 15 6 8 -4
15 -1 15 5 0 14 -27 14 -35 0z"/>
<path d="M12606 5055 c-3 -8 -1 -15 4 -15 6 0 10 7 10 15 0 8 -2 15 -4 15 -2
0 -6 -7 -10 -15z"/>
<path d="M2675 4963 c-27 -2 -54 -8 -59 -13 -5 -5 -22 -6 -37 -3 -16 3 -43 3
-62 -1 -31 -6 -34 -10 -45 -64 -7 -31 -13 -95 -14 -142 0 -47 -6 -101 -13
-120 -6 -20 -10 -67 -7 -111 l4 -76 36 -9 c36 -9 37 -10 47 -74 l10 -65 395 3
c217 1 413 5 436 8 l41 5 16 92 c23 126 23 194 0 200 -17 4 -17 5 0 6 25 2 23
65 -3 91 -11 11 -20 24 -20 29 0 14 -85 7 -103 -8 -9 -7 -26 -9 -41 -5 -18 4
-33 1 -45 -10 -15 -14 -21 -15 -27 -4 -10 16 -6 70 6 82 17 17 11 26 -20 26
-16 0 -33 -7 -38 -16 -10 -18 -53 -16 -60 4 -2 8 8 12 30 12 18 0 44 9 58 20
l25 20 -25 20 c-30 24 -49 25 -56 5 -4 -8 -10 -15 -15 -15 -5 0 -9 7 -9 15 0
8 -7 15 -15 15 -8 0 -15 -5 -15 -10 0 -13 -63 -3 -104 16 -34 16 -50 18 -41 4
4 -6 -5 -10 -19 -10 -14 0 -25 3 -25 8 3 19 -2 33 -11 27 -9 -6 -15 16 -11 39
1 5 -7 6 -19 3 -11 -3 -23 -1 -26 4 -5 9 -20 9 -119 2z m305 -117 c0 -3 -4 -8
-10 -11 -5 -3 -10 -1 -10 4 0 6 5 11 10 11 6 0 10 -2 10 -4z m60 -6 c0 -5 -2
-10 -4 -10 -3 0 -8 5 -11 10 -3 6 -1 10 4 10 6 0 11 -4 11 -10z m-9 -66 c-36
-15 -40 -8 -10 20 21 20 25 21 30 7 4 -11 -2 -19 -20 -27z m-111 16 c0 -14 28
-12 33 3 2 6 7 10 10 7 15 -13 -15 -34 -51 -36 -38 -2 -39 -1 -23 16 18 21 31
25 31 10z m-127 -37 c-7 -2 -19 -2 -25 0 -7 3 -2 5 12 5 14 0 19 -2 13 -5z
m262 -14 c4 -6 5 -12 2 -15 -7 -7 -37 7 -37 17 0 13 27 11 35 -2z m328 -35
c11 -11 -5 -34 -24 -34 -22 0 -24 6 -6 25 13 16 21 18 30 9z m-508 -94 c3 -5
-3 -10 -14 -10 -12 0 -21 5 -21 10 0 6 6 10 14 10 8 0 18 -4 21 -10z"/>
<path d="M12730 4960 c-13 -8 -12 -11 5 -24 11 -9 23 -16 28 -16 13 0 7 21 -8
26 -8 4 -12 10 -9 15 7 11 3 11 -16 -1z"/>
<path d="M12792 4935 c0 -16 2 -22 5 -12 2 9 2 23 0 30 -3 6 -5 -1 -5 -18z"/>
<path d="M2988 4883 c7 -3 16 -2 19 1 4 3 -2 6 -13 5 -11 0 -14 -3 -6 -6z"/>
<path d="M3220 4845 c0 -8 2 -15 4 -15 2 0 6 7 10 15 3 8 1 15 -4 15 -6 0 -10
-7 -10 -15z"/>
<path d="M4361 4824 c0 -11 3 -14 6 -6 3 7 2 16 -1 19 -3 4 -6 -2 -5 -13z"/>
<path d="M12491 4744 c0 -11 3 -14 6 -6 3 7 2 16 -1 19 -3 4 -6 -2 -5 -13z"/>
<path d="M12542 4730 c0 -14 2 -19 5 -12 2 6 2 18 0 25 -3 6 -5 1 -5 -13z"/>
<path d="M10310 4416 c0 -12 -6 -15 -24 -10 -13 3 -27 1 -30 -5 -4 -6 -15 -11
-24 -10 -14 0 -13 2 3 9 15 6 7 9 -30 9 -37 1 -46 -2 -35 -10 12 -8 12 -9 -5
-7 -11 1 -26 -1 -34 -6 -8 -5 -17 -3 -22 5 -7 11 -11 12 -17 1 -7 -10 -19 -11
-49 -4 -28 6 -50 6 -69 -2 -33 -14 -353 -14 -374 -1 -9 5 -11 4 -6 -4 6 -9
-11 -11 -69 -10 -42 2 -79 7 -81 11 -12 19 -19 -3 -18 -54 2 -75 24 -179 40
-185 8 -3 14 -11 14 -18 0 -8 4 -17 10 -20 5 -3 184 -7 397 -9 269 -2 395 -6
409 -14 26 -14 33 -47 35 -165 1 -48 6 -90 10 -93 10 -6 10 0 13 141 1 110 3
120 29 149 9 11 17 25 17 32 0 18 59 156 74 173 8 10 12 29 9 49 -5 32 -16 41
-28 22 -8 -13 -105 -13 -125 0 -13 8 -12 10 3 10 23 0 17 24 -6 28 -10 2 -17
-3 -17 -12z"/>
<path d="M4010 4401 c0 -10 -7 -21 -15 -25 -8 -3 -15 -11 -15 -17 0 -7 -7 -21
-17 -31 -15 -17 -14 -18 24 -18 39 0 41 2 47 35 8 39 0 75 -15 75 -5 0 -9 -9
-9 -19z"/>
<path d="M760 4219 c0 -5 5 -7 10 -4 6 3 10 8 10 11 0 2 -4 4 -10 4 -5 0 -10
-5 -10 -11z"/>
<path d="M2537 4212 c-8 -15 10 -169 23 -199 l15 -33 100 0 c55 0 224 3 376 7
l276 6 23 42 c15 28 23 59 24 101 l1 59 -130 0 c-71 0 -136 4 -142 8 -7 5 -18
5 -23 2 -16 -10 -430 -18 -430 -8 0 4 -10 8 -22 8 -13 1 -37 4 -55 8 -18 3
-34 3 -36 -1z"/>
<path d="M3918 4203 c-24 -28 -35 -55 -42 -105 -4 -29 -3 -49 4 -53 5 -3 10
-15 10 -26 0 -16 7 -19 44 -19 43 0 44 0 56 45 7 25 13 71 14 103 1 56 1 57
-26 55 -16 -1 -28 2 -28 8 0 14 -16 11 -32 -8z"/>
<path d="M174 4150 c-6 -6 -47 -11 -92 -11 l-82 -1 0 -111 0 -112 74 3 74 4 6
-54 c3 -29 8 -66 9 -83 2 -16 5 7 6 51 1 93 -1 91 100 92 34 1 62 2 64 2 1 1
124 4 272 6 149 3 284 7 300 9 23 4 36 15 54 49 30 54 24 108 -15 144 l-26 25
-192 -7 c-398 -15 -518 -17 -530 -7 -8 7 -16 7 -22 1z"/>
<path d="M4626 4061 c-3 -21 -9 -46 -12 -55 -3 -9 -2 -16 4 -16 5 0 12 23 16
51 8 61 2 78 -8 20z"/>
<path d="M9886 3779 c-353 -9 -349 -9 -337 -28 7 -11 65 -14 287 -17 154 -2
320 -6 370 -9 l91 -6 27 36 27 35 -78 -2 c-43 0 -217 -5 -387 -9z"/>
<path d="M3820 3645 c0 -31 112 -34 118 -2 3 15 -5 17 -57 17 -47 0 -61 -3
-61 -15z"/>
<path d="M2840 3643 c-113 -2 -211 -5 -218 -8 -10 -3 -10 -10 -2 -24 9 -17 19
-19 73 -16 34 2 156 4 271 5 114 1 215 4 222 7 8 3 19 14 25 24 9 18 5 19 -78
17 -48 -2 -180 -4 -293 -5z"/>
<path d="M258 3593 l-258 -3 0 -31 0 -31 302 6 c510 11 622 16 630 29 23 35
13 37 -204 35 -117 -2 -329 -4 -470 -5z"/>
<path d="M2527 3444 c-43 -8 -68 -20 -93 -45 -62 -60 -35 -94 35 -41 20 15 47
33 61 40 79 41 77 63 -3 46z"/>
<path d="M2499 3215 c-39 -21 -99 -77 -99 -92 0 -21 19 -15 60 17 21 17 44 30
51 30 20 0 79 38 79 50 0 15 -61 11 -91 -5z"/>
<path d="M5484 3175 c0 -21 4 -34 10 -32 6 2 11 9 10 15 -1 7 -2 21 -2 32 -3
34 -17 22 -18 -15z"/>
<path d="M928 3147 c-5 -10 -8 -28 -8 -40 -1 -13 -15 -33 -37 -49 -31 -24 -46
-28 -103 -28 -100 0 -176 -17 -270 -62 -47 -22 -111 -46 -142 -54 -102 -24
-187 -89 -286 -219 -25 -33 -54 -66 -64 -73 -17 -12 -18 -40 -18 -535 0 -491
1 -525 19 -572 24 -62 96 -193 121 -220 10 -11 28 -42 41 -70 13 -27 34 -66
47 -87 13 -20 22 -42 21 -50 -2 -19 24 -78 35 -78 5 0 34 -26 64 -57 69 -74
98 -93 143 -93 71 0 120 79 155 248 9 42 29 122 44 177 30 103 52 266 70 510
6 77 17 192 25 255 8 63 19 165 25 225 6 61 20 139 30 174 11 35 20 77 20 95
0 17 7 60 16 96 9 36 19 137 23 225 6 114 13 171 25 199 9 21 16 52 14 70 -2
24 -5 27 -10 13z"/>
<path d="M12276 3138 c-4 -14 -27 -162 -29 -190 -1 -10 -5 -18 -10 -18 -4 0
-6 -4 -3 -9 3 -5 -1 -22 -9 -38 -14 -29 -28 -85 -41 -165 -5 -27 -13 -39 -33
-47 -26 -10 -152 -36 -226 -46 -257 -37 -402 -85 -530 -177 -94 -67 -134 -137
-135 -229 0 -49 34 -182 53 -210 17 -24 105 -99 116 -99 11 0 71 -56 71 -66 0
-5 22 -30 49 -56 56 -54 72 -97 35 -93 -13 1 -29 7 -36 12 -31 23 -143 63
-177 63 -39 0 -82 11 -138 36 -17 8 -36 14 -41 14 -6 0 -19 11 -29 25 -12 17
-31 26 -57 30 -22 2 -44 9 -50 15 -10 10 -46 14 -46 5 0 -2 5 -27 11 -55 8
-39 8 -54 -1 -65 -19 -23 -37 -18 -67 16 -17 18 -34 28 -44 26 -12 -3 -16 0
-12 9 3 8 1 14 -5 14 -6 0 -12 -5 -14 -12 -7 -20 -127 77 -128 104 0 3 -12 20
-26 37 -20 25 -33 31 -58 29 -29 -2 -32 -4 -28 -30 3 -22 0 -28 -14 -28 -25
-1 -52 -22 -47 -37 3 -7 0 -13 -6 -13 -6 0 -11 -9 -11 -19 0 -13 -9 -21 -27
-24 -47 -9 -104 -12 -122 -6 -18 5 -29 -42 -32 -129 -2 -51 -6 -67 -26 -86
-14 -14 -38 -28 -54 -31 -32 -7 -82 -49 -92 -77 -3 -9 -28 -29 -56 -45 -28
-15 -51 -31 -51 -35 0 -5 -6 -8 -14 -8 -8 0 -28 -16 -45 -36 -21 -23 -43 -37
-66 -41 -23 -4 -32 -10 -28 -19 3 -8 0 -14 -6 -14 -6 0 -11 -7 -11 -15 0 -8
-5 -15 -11 -15 -5 0 -7 -4 -4 -10 3 -5 2 -10 -4 -10 -6 0 -13 -11 -17 -25 -3
-14 -10 -25 -16 -25 -5 0 -17 -17 -26 -38 -9 -20 -27 -51 -39 -69 -16 -21 -23
-45 -23 -76 0 -25 -7 -58 -15 -73 -8 -16 -15 -25 -15 -19 0 5 -5 4 -11 -2 -14
-14 -14 -164 0 -190 12 -24 14 -60 7 -118 -7 -57 7 -111 59 -221 51 -108 49
-101 33 -117 -21 -24 -130 -2 -224 44 -46 23 -84 45 -84 50 0 5 -7 9 -16 9 -8
0 -22 7 -30 15 -25 24 -51 18 -57 -13 -3 -15 -22 -48 -41 -74 -20 -26 -36 -56
-36 -67 0 -11 -4 -22 -9 -25 -5 -3 -11 -16 -14 -28 -7 -34 -45 -171 -53 -191
-6 -16 42 -17 839 -17 723 0 846 2 850 14 6 15 122 76 145 76 7 0 28 11 46 25
26 20 45 25 89 25 31 0 59 5 62 10 18 30 87 1 163 -69 27 -25 59 -27 90 -6 12
9 45 19 72 22 l51 6 49 -52 48 -51 496 0 c273 0 496 3 496 8 -1 17 -30 133
-50 197 -19 62 -20 84 -14 195 3 69 8 136 10 150 9 72 25 461 20 495 -7 52
-42 140 -119 295 l-61 125 -7 150 c-3 83 -11 177 -18 210 -28 141 -46 204 -77
265 -41 81 -44 96 -47 245 l-2 120 -42 69 -43 70 -1 130 c-1 206 -9 358 -20
394 -11 33 -27 42 -33 20z m-2696 -2978 c0 -16 -21 -22 -35 -10 -9 7 -15 30
-15 53 l0 40 25 -37 c14 -20 25 -41 25 -46z"/>
<path d="M5487 3112 c-22 -24 -21 -32 3 -32 15 0 20 7 20 25 0 30 -2 30 -23 7z"/>
<path d="M2584 3053 c-17 -17 -17 -18 0 -21 27 -6 46 6 40 23 -8 20 -19 19
-40 -2z"/>
<path d="M4246 3004 c-21 -29 -68 -84 -103 -121 -59 -61 -94 -125 -79 -141 3
-3 6 3 6 14 0 16 2 17 11 4 8 -11 12 -12 16 -2 2 6 9 10 14 6 5 -3 9 2 9 11 0
9 5 13 10 10 6 -4 13 7 16 24 4 17 10 28 15 26 4 -3 10 -1 14 5 4 6 11 7 17 4
6 -4 8 -2 5 3 -4 6 0 24 8 39 8 16 15 25 15 21 0 -5 6 -2 14 5 18 18 66 137
57 142 -3 2 -24 -20 -45 -50z"/>
<path d="M5691 3035 c1 -19 18 -51 18 -35 0 8 -4 22 -9 30 -5 8 -9 11 -9 5z"/>
<path d="M2434 2979 c-16 -5 -40 -20 -53 -33 -24 -26 -25 -63 0 -57 8 2 60 7
115 11 56 4 107 11 113 14 15 10 14 26 -2 26 -8 0 -36 11 -63 25 -53 27 -62
28 -110 14z"/>
<path d="M2667 2883 c-13 -13 -7 -21 13 -16 11 3 20 9 20 14 0 10 -24 12 -33
2z"/>
<path d="M9587 2850 c-9 -14 -17 -37 -17 -53 0 -22 -6 -31 -28 -39 -16 -6 -33
-21 -38 -32 -5 -12 -18 -22 -30 -24 -53 -8 -70 -129 -29 -197 14 -22 25 -46
25 -52 0 -7 9 -22 20 -33 14 -14 20 -34 20 -67 1 -27 7 -66 15 -88 8 -22 15
-65 15 -96 0 -49 7 -86 27 -139 4 -8 5 -21 4 -27 -1 -7 5 -13 14 -13 8 0 15
-5 15 -12 0 -6 2 -9 5 -7 16 17 38 270 39 464 2 131 8 245 16 282 13 63 7 138
-11 128 -5 -4 -9 -1 -9 5 0 7 -6 10 -14 7 -8 -3 -16 -1 -18 5 -3 7 -12 1 -21
-12z"/>
<path d="M2438 2708 c-47 -29 -84 -56 -81 -61 9 -15 102 1 139 24 24 14 53 22
90 23 31 0 54 6 54 12 0 13 -72 54 -96 54 -11 0 -58 -24 -106 -52z"/>
<path d="M3325 2676 c-13 -13 -27 -41 -31 -62 -4 -22 -17 -60 -29 -86 -29 -61
-39 -113 -25 -138 13 -25 24 -25 80 2 25 11 56 21 70 22 38 2 90 109 90 187 0
47 -4 61 -21 72 -12 9 -16 16 -9 19 7 2 -13 5 -44 6 -48 2 -60 -1 -81 -22z"/>
<path d="M2652 2553 c-41 -25 -54 -43 -29 -43 6 0 23 9 37 20 14 11 31 20 38
20 13 0 17 16 4 23 -4 3 -26 -6 -50 -20z"/>
<path d="M2313 2553 c-34 -12 14 -79 66 -93 50 -13 140 -75 226 -154 55 -51
73 -63 86 -55 26 14 32 44 14 78 -16 33 -138 142 -182 164 -57 29 -190 66
-210 60z"/>
<path d="M2270 2231 c0 -5 35 -40 78 -78 42 -37 104 -94 136 -126 53 -51 61
-56 75 -42 13 13 11 19 -19 51 -19 20 -62 57 -95 82 -33 25 -80 63 -104 84
-42 37 -71 48 -71 29z"/>
<path d="M3332 2225 c-12 -5 -25 -18 -28 -27 -3 -10 -9 -18 -13 -18 -14 0 -33
-53 -42 -115 -4 -33 -13 -61 -19 -63 -5 -2 -10 -30 -10 -62 0 -35 -5 -60 -11
-62 -7 -2 -13 -31 -14 -68 -2 -36 -8 -78 -14 -94 -9 -23 -9 -31 1 -37 10 -7
10 -11 0 -21 -6 -6 -12 -21 -12 -33 0 -12 -7 -30 -15 -41 -16 -21 -19 -34 -7
-34 9 0 25 38 48 110 9 30 43 135 75 232 65 200 92 299 87 325 -2 15 -7 16
-26 8z"/>
<path d="M2240 2091 c-18 -34 -11 -58 25 -93 48 -45 60 -43 58 10 -1 33 2 42
15 42 22 0 -47 59 -70 60 -10 0 -22 -9 -28 -19z"/>
<path d="M10455 2100 c-11 -17 26 -45 55 -42 15 2 34 -4 43 -12 13 -14 16 -14
21 -1 9 24 26 17 26 -9 0 -30 15 -42 24 -20 8 22 7 64 -1 65 -33 3 -59 11 -61
19 -5 13 -99 13 -107 0z"/>
<path d="M10193 2077 c-3 -6 -2 -12 3 -14 37 -12 72 -45 77 -71 5 -22 15 -33
44 -45 21 -8 41 -13 45 -10 4 2 7 21 6 42 0 21 1 42 5 47 3 5 -3 21 -13 34
-17 22 -27 25 -89 27 -42 0 -74 -3 -78 -10z"/>
<path d="M10400 2034 c0 -22 2 -24 14 -14 8 6 12 18 9 26 -9 23 -23 16 -23
-12z"/>
<path d="M10018 1972 c-22 -4 -24 -28 -3 -36 8 -3 12 -12 9 -19 -3 -8 8 -25
25 -40 17 -14 31 -30 31 -36 0 -16 26 -13 39 3 10 11 10 20 1 36 -21 39 -84
96 -102 92z"/>
<path d="M2200 1936 c0 -22 49 -56 81 -56 41 0 36 21 -11 48 -45 25 -70 28
-70 8z"/>
<path d="M9854 1902 c-24 -15 -26 -50 -5 -71 26 -26 32 -26 58 -2 13 12 29 18
41 14 18 -4 20 -1 15 19 -3 12 -10 29 -16 36 -10 13 -75 16 -93 4z"/>
<path d="M2308 1832 c-29 -6 -21 -17 25 -36 23 -10 55 -24 72 -31 36 -16 41
-13 60 32 19 46 20 43 -19 43 -26 0 -35 -5 -39 -21 -6 -23 -27 -17 -27 7 0 14
-25 16 -72 6z"/>
<path d="M2172 1759 c3 -22 12 -29 57 -46 22 -8 23 -10 7 -26 -10 -9 -33 -17
-51 -17 -45 0 -50 -12 -15 -33 54 -32 186 -24 226 14 47 45 29 61 -96 89 -30
7 -64 19 -75 26 -31 22 -57 18 -53 -7z"/>
<path d="M2210 1533 c-61 -9 -69 -14 -89 -56 -12 -24 -21 -55 -21 -70 l0 -27
48 24 c52 26 137 111 127 126 -6 10 -19 11 -65 3z"/>
<path d="M3003 1220 c-3 -11 -9 -20 -14 -20 -5 0 -9 -5 -9 -11 0 -6 -15 -25
-34 -42 -27 -26 -33 -38 -29 -60 6 -32 18 -34 35 -7 15 24 28 26 28 5 0 -21
39 -19 40 3 5 90 4 152 -3 152 -5 0 -11 -9 -14 -20z"/>
<path d="M2930 986 c0 -56 17 -85 37 -65 14 14 33 3 33 -18 0 -10 6 -13 16 -9
9 3 20 6 25 6 34 0 -22 87 -77 119 l-34 20 0 -53z"/>
<path d="M0 690 c0 -6 47 -9 123 -9 105 2 113 3 62 9 -90 12 -185 11 -185 0z"/>
<path d="M266 505 c-35 -35 -36 -35 -151 -41 l-115 -7 0 -59 0 -58 38 0 c20 0
83 -5 138 -12 131 -15 146 -9 207 84 26 38 47 76 47 83 0 28 -31 45 -80 45
-43 0 -54 -5 -84 -35z"/>
<path d="M3308 3 c6 -2 18 -2 25 0 6 3 1 5 -13 5 -14 0 -19 -2 -12 -5z"/>
</g>
</svg>
