<?xml version="1.0" standalone="no"?>
<!DOCTYPE svg PUBLIC "-//W3C//DTD SVG 20010904//EN"
 "http://www.w3.org/TR/2001/REC-SVG-20010904/DTD/svg10.dtd">
<svg version="1.0" xmlns="http://www.w3.org/2000/svg"
 width="660.000000pt" height="372.000000pt" viewBox="0 0 660.000000 372.000000"
 preserveAspectRatio="xMidYMid meet">

<g transform="translate(0.000000,372.000000) scale(0.100000,-0.100000)"
fill="#000000" stroke="none">
<path d="M1128 2943 c-2 -428 -1 -825 2 -883 l4 -105 6 85 c3 55 9 85 17 85 6
0 15 3 19 8 15 15 42 6 48 -15 6 -26 -20 -178 -39 -223 -17 -41 -73 -108 -97
-117 -13 -6 -34 0 -64 18 -39 23 -53 25 -121 23 -94 -4 -200 -34 -229 -64 -12
-13 -35 -26 -53 -30 -17 -4 -29 -10 -27 -13 5 -9 -39 -226 -49 -242 -5 -8 -12
-5 -22 9 -8 12 -23 21 -34 21 -12 0 -23 10 -29 25 -13 35 -33 32 -137 -20
-124 -61 -147 -70 -140 -50 13 32 103 145 122 151 18 6 18 7 -5 16 l-25 9 26
22 c15 12 30 33 34 47 4 14 28 45 52 70 24 25 63 77 86 115 l41 70 -3 93 c-1
51 -8 109 -15 130 l-13 37 -7 -45 c-20 -138 -31 -179 -54 -220 -34 -59 -31
-56 -147 -179 -88 -93 -140 -142 -248 -233 l-28 -23 3 -154 3 -154 45 71 c24
39 45 70 47 68 2 -1 -6 -56 -17 -121 -17 -99 -24 -121 -45 -139 -25 -22 -32
-57 -18 -93 6 -16 8 -15 13 7 6 24 40 42 40 21 0 -6 -7 -8 -15 -5 -8 4 -15 1
-15 -5 0 -6 8 -11 18 -11 15 -1 15 -2 -2 -11 -11 -7 -14 -14 -8 -18 6 -3 13
-51 17 -106 13 -218 13 -220 46 -239 16 -9 26 -22 23 -28 -4 -7 5 -8 27 -3 30
7 32 6 20 -9 -7 -9 -20 -16 -27 -16 -8 0 -14 -4 -14 -8 0 -10 -40 -60 -97
-123 l-43 -46 0 -197 0 -196 600 0 c581 0 600 1 600 19 0 10 6 30 13 45 18 34
12 182 -8 203 -8 7 -19 32 -25 53 -6 22 -15 40 -19 40 -18 0 2 40 30 62 l28
23 -27 35 c-35 46 -49 60 -60 60 -8 0 -22 22 -22 36 0 2 20 4 44 4 50 0 61
-10 92 -84 19 -43 28 -52 65 -66 23 -8 62 -34 85 -57 24 -23 56 -49 72 -57 40
-21 107 -96 136 -155 18 -34 49 -69 93 -106 l67 -55 528 0 529 0 10 30 c6 17
14 30 18 30 21 0 54 44 91 121 101 211 94 204 215 184 44 -8 229 -19 410 -25
562 -18 617 -21 733 -31 63 -5 117 -7 122 -4 5 3 47 7 94 9 89 4 125 18 146
55 5 11 37 28 75 41 61 20 70 21 109 8 44 -15 104 -7 118 15 4 6 10 8 14 5 9
-10 -19 -51 -62 -90 -20 -18 -45 -52 -56 -75 -21 -44 -50 -77 -117 -131 -23
-18 -41 -37 -41 -42 0 -5 -11 -26 -25 -46 -14 -20 -25 -41 -25 -45 0 -5 437
-9 975 -9 l975 0 0 53 c0 97 -37 126 -144 113 -46 -6 -56 -11 -56 -26 0 -10 5
-22 10 -25 15 -9 12 -44 -4 -61 -20 -19 -110 -19 -126 1 -21 25 -5 86 30 118
24 21 40 27 75 27 44 0 46 1 68 47 23 49 35 57 110 68 l37 6 0 94 0 95 -35 0
c-44 0 -44 9 0 38 27 17 35 29 35 52 0 34 -6 36 -40 14 -35 -24 -50 -44 -50
-70 0 -12 -6 -24 -12 -27 -24 -8 -133 6 -146 19 -7 7 -16 35 -21 61 -7 37 -18
55 -46 79 -29 24 -36 36 -33 59 5 47 31 54 199 48 l149 -5 0 414 0 415 -306 9
c-273 9 -307 11 -315 27 -6 9 -18 17 -28 17 -10 0 -38 17 -62 38 -63 55 -109
85 -109 72 0 -6 7 -13 15 -16 8 -4 15 -12 15 -20 0 -8 3 -14 8 -14 4 0 22 -21
39 -48 43 -62 86 -222 71 -263 -15 -44 6 -121 41 -146 42 -32 52 -80 40 -197
-15 -147 -35 -225 -63 -251 -37 -35 -56 -17 -56 53 0 73 -14 90 -45 55 -14
-17 -28 -24 -38 -20 -18 7 -41 47 -51 90 -5 21 -3 27 11 28 10 1 0 5 -22 8
l-40 6 47 24 c37 19 45 27 37 38 -6 7 -22 13 -35 13 -15 0 -24 6 -24 15 0 8 3
15 8 15 4 0 6 28 4 62 -2 35 1 74 7 88 7 18 10 20 10 8 1 -26 41 -24 41 2 0
11 -4 20 -8 20 -4 0 -14 17 -21 38 -17 45 -82 140 -133 192 -21 21 -38 45 -38
53 0 8 -12 20 -27 25 -29 10 -56 34 -106 91 -31 36 -47 40 -47 11 0 -22 -22
-27 -37 -7 -6 6 -16 28 -22 49 -12 38 -26 48 -67 48 -21 0 -24 4 -24 39 0 38
-2 41 -60 72 -33 17 -60 35 -60 38 0 3 -11 18 -25 33 -39 42 -46 72 -39 160 7
84 18 104 60 114 13 3 48 18 77 33 l52 26 6 300 c4 165 9 477 13 693 l7 392
-2085 0 -2086 0 -2 -777z m3225 455 c15 -7 27 -19 27 -25 0 -7 4 -13 10 -13 5
0 7 -14 3 -32 -4 -26 -3 -31 7 -21 7 6 19 9 27 6 11 -4 10 -8 -3 -18 -12 -8
-18 -30 -21 -74 -1 -35 -6 -68 -10 -74 -4 -7 -8 -16 -8 -22 0 -5 -12 -11 -27
-13 l-28 -3 16 36 c17 41 13 55 -11 35 -31 -25 -36 -47 -21 -82 8 -18 15 -28
15 -21 1 7 8 10 16 7 8 -4 15 -1 15 6 0 8 13 10 42 6 53 -7 57 -12 19 -21 -40
-9 -45 -19 -25 -50 16 -25 16 -26 -4 -32 -18 -4 -19 -9 -11 -31 6 -14 7 -37 4
-50 -4 -17 -2 -22 6 -16 8 5 9 3 4 -6 -13 -21 -55 38 -55 78 0 22 -11 46 -32
74 -32 39 -33 43 -33 134 0 99 13 132 48 118 23 -8 21 -25 -3 -31 -25 -7 -26
-23 -2 -24 16 -1 16 -2 0 -6 -24 -6 -23 -19 2 -26 11 -3 20 -2 20 3 0 4 9 10
20 13 22 6 28 47 8 48 -7 0 -4 4 7 8 19 8 19 8 -4 20 -13 7 -36 11 -52 9 -33
-5 -37 10 -17 59 6 15 11 31 10 36 -3 10 10 9 41 -5z m-757 -200 c-3 -13 -6
-31 -6 -40 0 -10 -4 -18 -10 -18 -11 0 -14 63 -3 73 14 15 25 6 19 -15z m918
-3 c-4 -8 -12 -15 -19 -15 -7 0 -15 7 -19 15 -4 11 1 15 19 15 18 0 23 -4 19
-15z m-1008 -107 c-1 -23 -6 -43 -12 -45 -12 -4 -18 63 -7 80 11 18 19 4 19
-35z m31 -99 c13 -28 17 -49 11 -47 -6 2 -15 11 -18 19 -4 8 -12 24 -18 36
-14 26 -15 43 -4 43 4 0 17 -23 29 -51z m782 -35 c-14 -38 3 -80 67 -170 81
-113 104 -163 104 -228 0 -30 -5 -67 -11 -83 -6 -15 -14 -56 -18 -91 l-8 -64
64 -60 c35 -34 63 -68 63 -75 0 -20 -26 -44 -51 -46 -11 -1 -25 -9 -30 -18 -5
-9 -28 -32 -51 -50 -33 -27 -40 -29 -34 -14 4 11 9 29 11 40 4 30 16 55 26 55
5 0 9 10 9 23 0 18 -2 19 -10 7 -8 -12 -10 -11 -10 8 0 27 4 28 29 1 27 -29
36 -7 14 33 -10 18 -20 44 -23 58 -4 19 -10 6 -22 -50 -21 -90 -47 -217 -58
-283 -5 -26 -12 -57 -15 -67 -10 -32 13 -23 37 15 26 39 48 52 59 33 6 -9 15
-7 38 10 55 40 53 23 -4 -34 -30 -31 -55 -61 -55 -66 0 -6 9 -3 20 7 11 10 20
15 20 10 0 -4 11 0 25 9 13 9 30 16 37 16 6 0 34 19 61 42 27 23 45 33 39 22
-15 -26 -55 -67 -98 -100 -29 -23 -37 -25 -45 -13 -8 12 -13 6 -10 -13 0 -3
-38 -5 -84 -3 l-85 3 0 -29 c0 -15 5 -31 11 -34 5 -4 8 -19 4 -33 -11 -53 -13
-112 -4 -112 5 0 9 15 9 33 0 17 5 48 10 67 10 35 10 35 70 37 33 0 58 -3 54
-8 -3 -5 7 -9 21 -9 26 0 27 2 23 40 -2 22 -1 40 3 40 9 0 20 -60 13 -71 -9
-15 15 -49 31 -43 20 8 19 -6 -2 -23 -16 -12 -13 -13 27 -12 66 3 90 -7 90
-39 0 -20 3 -23 9 -12 6 8 7 18 5 22 -3 4 -1 8 4 8 11 0 36 -89 28 -98 -3 -2
-10 7 -15 22 -15 37 -35 34 -27 -4 4 -24 2 -30 -11 -30 -14 0 -14 -3 3 -21 19
-21 18 -21 -2 -38 -11 -9 -19 -22 -16 -29 2 -7 -11 -18 -29 -26 -31 -13 -32
-14 -11 -25 31 -17 27 -30 -13 -47 -34 -14 -40 -34 -10 -34 7 0 17 -9 20 -20
4 -11 16 -20 28 -21 13 -1 3 -6 -23 -14 -38 -10 -42 -14 -25 -20 27 -11 37
-28 22 -37 -22 -13 7 -28 70 -34 l61 -7 6 29 c3 16 5 43 5 59 0 55 26 175 44
195 9 11 23 36 31 55 15 35 29 44 41 25 20 -32 69 9 58 49 -9 34 5 71 27 71
10 0 22 5 25 10 4 6 -5 10 -19 10 -14 0 -26 5 -26 10 0 6 22 10 48 10 50 0 65
8 146 81 60 54 78 54 94 -1 7 -25 19 -59 27 -77 15 -34 7 -43 -35 -43 -10 0
-39 -9 -64 -19 -38 -17 -47 -26 -55 -59 -11 -40 -37 -68 -84 -92 -59 -30 -76
-120 -33 -182 52 -78 63 -187 26 -271 -10 -23 -23 -71 -29 -106 -12 -76 -31
-102 -57 -80 -16 13 -17 10 -11 -51 6 -53 4 -70 -10 -90 -42 -60 -40 -60 -97
-32 -28 14 -58 25 -66 24 -8 0 -60 -15 -115 -32 -72 -23 -108 -39 -127 -60
l-27 -29 -238 10 c-296 12 -642 35 -665 44 -10 4 -16 11 -13 15 5 8 115 63
163 81 24 9 30 29 9 29 -7 0 -48 -14 -92 -31 -216 -83 -274 -93 -332 -58 -24
15 -44 20 -68 16 -84 -14 -106 31 -27 56 86 27 102 29 107 12 16 -51 16 -51
38 -13 12 21 27 38 33 38 5 0 25 14 42 31 26 26 32 39 32 76 0 29 5 45 15 49
19 8 29 42 17 57 -7 9 -1 30 23 72 l33 60 483 5 c307 3 396 6 243 8 -186 1
-250 5 -277 17 -31 13 -52 13 -174 0 -76 -8 -168 -15 -205 -15 l-68 0 12 28
c7 15 20 35 30 45 24 23 23 81 -1 165 -11 37 -22 89 -24 115 -4 42 -2 47 12
41 16 -7 88 -18 196 -30 36 -5 65 -14 73 -23 11 -14 11 -14 5 3 -4 14 -3 17 6
12 6 -4 11 -4 10 1 -3 20 2 34 11 28 6 -3 10 5 10 19 0 13 3 31 6 40 5 14 -15
16 -182 16 -104 0 -199 3 -211 6 -22 6 -58 77 -48 94 3 4 1 10 -3 12 -5 1 -6
30 -3 63 6 62 16 77 78 129 21 18 22 17 48 -8 14 -14 42 -33 61 -41 42 -17 61
-35 66 -61 2 -13 13 -20 33 -22 17 -2 37 -10 46 -18 19 -17 91 -13 97 5 6 19
22 12 22 -9 0 -11 6 -20 14 -20 17 0 29 43 21 73 -5 16 -4 18 3 8 9 -12 11
-12 14 0 3 8 3 1 0 -16 -9 -55 -10 -77 -4 -71 3 4 7 17 9 29 7 44 25 101 40
123 9 15 15 54 17 111 2 48 11 129 20 178 18 101 18 106 -24 320 -6 33 -14 70
-16 81 -3 17 -17 25 -71 38 -84 21 -144 55 -163 92 -8 16 -30 42 -48 58 -19
16 -51 64 -73 107 -35 70 -37 77 -18 70 12 -4 38 -39 61 -80 21 -40 46 -80 55
-89 9 -9 22 -31 29 -49 8 -18 23 -37 33 -43 32 -17 86 -11 122 13 19 12 40 22
47 21 6 -1 17 -2 23 -3 5 0 7 -5 4 -11 -3 -5 -4 -14 0 -20 8 -12 35 -1 35 15
0 7 7 16 16 19 15 6 16 -1 11 -54 -4 -50 -3 -59 8 -50 7 6 16 23 20 37 5 21 8
24 16 12 7 -11 9 -9 9 9 0 29 26 28 34 -2 6 -24 78 -96 96 -96 12 0 14 33 3
44 -13 12 -33 128 -27 153 4 13 2 23 -4 23 -6 0 -12 12 -14 28 -2 15 -8 26
-16 24 -6 -1 -29 7 -49 18 -26 14 -40 16 -49 9 -7 -6 -28 -12 -46 -14 -18 -1
-37 -4 -43 -6 -5 -2 -20 3 -33 10 -22 12 -23 11 -12 -8 13 -26 7 -27 -16 -3
-10 9 -35 22 -57 27 -48 12 -59 32 -22 41 19 5 35 0 57 -16 27 -20 33 -21 81
-9 29 7 65 22 80 33 23 17 43 21 108 21 75 0 80 1 111 33 18 17 34 32 35 32 1
0 -2 -12 -8 -26z m-3118 -117 c1 -18 3 -24 6 -14 6 21 22 22 29 2 5 -13 10
-11 26 7 19 22 20 22 18 3 -7 -64 -4 -68 50 -63 41 4 51 2 55 -12 11 -33 63
-70 100 -70 19 0 34 -3 34 -7 -1 -5 -1 -17 0 -28 2 -31 17 1 26 55 8 51 33
110 46 110 5 0 9 -18 9 -40 0 -31 4 -40 17 -40 9 0 25 -8 36 -17 15 -13 21
-15 24 -5 5 14 83 17 83 2 0 -5 18 -10 40 -10 36 0 40 3 40 25 0 23 4 25 40
25 24 0 40 -5 40 -12 0 -14 11 -4 14 14 14 78 33 99 55 61 9 -15 10 -14 11 10
0 15 5 27 10 27 6 0 10 -4 10 -10 0 -5 6 -10 13 -10 7 0 18 -10 26 -21 10 -18
15 -19 22 -8 7 11 15 7 39 -18 37 -41 44 -41 60 -3 7 17 16 30 20 30 10 0 31
-50 25 -61 -4 -5 -1 -17 4 -26 9 -15 10 -14 11 11 0 27 1 28 48 24 33 -3 50 0
58 10 9 13 12 12 17 -2 4 -9 2 -16 -3 -16 -6 0 -10 -18 -10 -40 0 -36 3 -40
25 -40 23 0 25 4 25 40 l0 40 40 0 c36 0 40 -2 40 -25 0 -22 4 -25 40 -25 22
0 40 -4 40 -10 0 -5 12 -10 28 -10 15 0 44 -3 65 -6 35 -6 37 -8 37 -45 0 -28
4 -39 15 -39 8 0 15 9 15 20 0 11 4 20 10 20 5 0 15 -9 22 -20 7 -11 21 -20
30 -20 13 0 18 -8 18 -25 0 -22 4 -25 43 -27 l42 -1 -42 -4 c-24 -2 -43 -8
-43 -13 0 -5 -19 -11 -42 -13 -24 -2 0 -4 52 -5 52 0 111 -5 130 -11 19 -6 50
-11 67 -11 29 0 33 -3 33 -25 0 -21 -5 -25 -30 -25 -16 0 -30 -4 -30 -10 0 -5
9 -10 20 -10 11 0 25 -9 32 -20 7 -11 18 -20 25 -20 7 0 13 -4 13 -10 0 -5 9
-10 20 -10 10 0 23 -7 28 -16 7 -12 20 -15 51 -12 38 3 41 2 41 -21 0 -14 14
-38 36 -59 24 -23 36 -45 36 -61 0 -26 23 -61 40 -61 4 0 8 7 8 15 0 9 11 20
25 27 40 18 52 -1 48 -74 -2 -45 0 -57 6 -43 5 11 10 36 11 55 1 52 21 72 67
68 47 -4 58 -33 19 -48 -17 -6 -26 -17 -26 -32 0 -24 -19 -83 -33 -106 -5 -7
-17 -10 -27 -7 -14 5 -21 -2 -31 -32 -6 -21 -23 -52 -36 -69 -12 -17 -23 -35
-23 -41 0 -6 24 -61 54 -124 88 -187 108 -250 113 -364 l5 -100 -45 -54 c-26
-30 -62 -61 -86 -72 -39 -17 -40 -19 -30 -46 5 -15 15 -34 22 -41 13 -16 19
-275 6 -267 -4 3 -5 15 -2 28 4 20 3 21 -10 5 -20 -25 -28 -22 -21 7 4 15 2
25 -5 25 -6 0 -11 14 -11 31 0 19 -4 28 -11 23 -7 -4 -9 -21 -5 -42 l5 -36
-25 25 c-14 13 -38 36 -54 51 -26 27 -29 27 -56 13 -16 -8 -36 -15 -44 -15 -8
0 -26 -9 -40 -20 -14 -11 -30 -20 -37 -20 -21 0 -43 31 -43 61 0 22 -6 32 -24
39 -29 11 -26 36 10 75 14 15 24 38 24 55 0 34 1 34 138 50 57 7 101 15 98 17
-3 3 -42 0 -87 -6 -45 -6 -94 -11 -107 -11 l-26 0 22 20 c26 24 28 36 7 44
-11 4 -13 10 -6 23 16 28 71 262 71 298 l0 33 68 -4 c37 -3 73 -7 80 -9 6 -3
12 0 12 5 0 11 32 1 42 -14 4 -6 8 4 8 22 l0 32 -104 0 c-132 0 -153 7 -161
57 -3 21 -10 46 -16 56 -5 10 -7 22 -4 27 7 12 -43 50 -66 50 -10 0 -43 12
-74 27 -50 25 -59 26 -107 16 -64 -13 -87 -7 -94 22 -4 17 -22 30 -61 46 l-55
22 9 36 c4 20 8 74 8 121 l0 85 -62 -3 c-49 -3 -64 -1 -69 11 -8 21 -31 28
-70 21 -24 -4 -37 -14 -49 -40 -9 -20 -23 -34 -34 -34 -10 0 -28 -9 -41 -20
-13 -11 -29 -20 -35 -20 -37 0 -19 -97 40 -214 25 -49 42 -92 39 -97 -3 -5 2
-12 10 -15 37 -14 11 -24 -63 -24 -90 0 -116 -15 -43 -25 43 -6 48 -9 50 -33
1 -15 10 -33 20 -41 14 -11 -66 -12 -530 -8 -427 5 -548 4 -548 -6 0 -22 15
-34 50 -42 53 -12 210 -12 210 0 1 27 20 -25 20 -53 0 -20 4 -31 10 -27 6 3
10 18 10 33 0 31 9 46 30 51 17 4 143 2 147 -3 2 -2 -15 -16 -37 -31 -22 -15
-40 -32 -40 -37 0 -5 -11 -33 -24 -61 -13 -29 -28 -69 -35 -89 -15 -46 -39
-68 -52 -47 -6 10 -9 5 -9 -19 0 -37 -8 -42 -111 -62 -55 -11 -73 -11 -98 0
-39 16 -46 28 -61 110 -7 36 -17 71 -23 77 -5 7 -7 22 -4 34 3 11 -1 45 -9 75
-8 30 -14 63 -14 74 0 10 -7 26 -16 35 -9 9 -14 19 -11 22 4 3 86 5 182 4
l177 -2 -7 30 c-6 27 -4 31 22 37 46 10 50 12 18 13 -40 2 -63 16 -40 25 14 5
15 9 4 22 -7 8 -26 22 -42 30 -25 14 -33 14 -60 1 -30 -14 -217 -30 -217 -19
0 5 54 67 122 141 56 61 118 180 118 228 0 58 -25 58 -41 1 -7 -24 -18 -50
-26 -58 -12 -13 -15 -13 -23 0 -5 8 -8 22 -5 30 2 8 7 47 11 85 3 39 12 84 19
102 13 30 11 43 -6 43 -5 0 -20 -20 -35 -45 -14 -25 -29 -45 -33 -45 -17 0
-18 13 -4 61 8 27 12 58 8 67 -5 14 -10 10 -25 -18 -11 -19 -19 -41 -20 -48 0
-7 -7 -29 -16 -50 -12 -29 -17 -34 -24 -21 -5 8 -5 32 0 55 5 21 9 50 9 64 l0
25 -10 -25 c-6 -14 -17 -54 -26 -90 -8 -36 -18 -78 -22 -95 l-8 -30 -8 27
c-10 40 2 639 15 672 13 34 30 25 31 -17z m3447 -7 c1 -27 -3 -52 -9 -55 -5
-4 -6 -11 -3 -17 4 -6 -2 -6 -15 1 -16 9 -28 8 -52 -4 -17 -9 -33 -14 -37 -11
-3 3 0 6 6 6 6 0 18 13 27 30 14 27 72 100 80 100 2 0 3 -22 3 -50z m215 -61
c12 -7 17 -18 14 -30 -3 -10 -1 -17 4 -13 12 7 11 0 -3 -31 -6 -14 -14 -25
-18 -25 -4 0 -11 -17 -15 -37 -4 -23 -9 -32 -14 -24 -6 10 -10 9 -14 -3 -4 -9
-40 -33 -82 -53 -82 -39 -83 -41 -89 -133 -2 -30 -9 -56 -15 -58 -17 -6 -13
-22 5 -22 11 0 14 -6 8 -22 -9 -32 -8 -31 -61 -22 l-48 8 40 6 c36 6 38 7 15
14 -14 4 -45 6 -70 4 l-45 -3 1 35 c3 100 35 180 72 180 28 0 171 51 186 66 8
8 19 14 24 14 12 0 75 60 69 67 -3 2 -32 -9 -64 -26 -32 -16 -102 -50 -155
-75 l-98 -45 0 26 c0 31 37 113 51 113 5 0 9 8 9 17 0 15 1 15 13 -2 8 -10 19
-15 25 -11 7 4 12 2 12 -3 0 -6 -4 -11 -9 -11 -14 0 -61 -45 -61 -59 0 -9 6
-9 23 1 12 7 24 13 27 13 11 2 87 28 113 38 21 9 27 19 27 43 0 16 9 40 20 52
12 12 16 23 10 27 -6 3 -10 10 -10 14 0 9 67 -11 103 -30z m-3223 1 c0 -5 -5
-10 -11 -10 -5 0 -7 5 -4 10 3 6 8 10 11 10 2 0 4 -4 4 -10z m2883 -95 c-3 -9
-8 -14 -10 -11 -3 3 -2 9 2 15 9 16 15 13 8 -4z m415 -90 c-3 -3 -9 2 -12 12
-6 14 -5 15 5 6 7 -7 10 -15 7 -18z m-1878 -56 c0 -5 -4 -9 -10 -9 -5 0 -10 7
-10 16 0 8 5 12 10 9 6 -3 10 -10 10 -16z m1830 -144 c0 -8 -4 -15 -10 -15 -5
0 -7 7 -4 15 4 8 8 15 10 15 2 0 4 -7 4 -15z m-1750 -15 c0 -5 -4 -10 -10 -10
-5 0 -10 5 -10 10 0 6 5 10 10 10 6 0 10 -4 10 -10z m1330 -152 c0 -5 -4 -8
-10 -8 -5 0 -10 10 -10 23 0 18 2 19 10 7 5 -8 10 -18 10 -22z m-1150 -44 c0
-8 -5 -12 -10 -9 -6 4 -8 11 -5 16 9 14 15 11 15 -7z m238 -91 c-3 -29 -32
-43 -49 -26 -13 13 -1 41 19 46 31 8 33 7 30 -20z m892 -116 c0 -2 -13 -13
-30 -25 -24 -18 -30 -20 -30 -7 0 9 10 20 23 25 24 9 37 12 37 7z m330 -297
c0 -5 -4 -10 -10 -10 -5 0 -10 5 -10 10 0 6 5 10 10 10 6 0 10 -4 10 -10z m15
-57 c4 -14 2 -23 -4 -23 -6 0 -11 3 -11 8 0 4 -3 18 -6 32 -8 31 11 16 21 -17z
m-2485 -87 c47 -21 99 -49 117 -62 71 -53 204 -285 238 -414 9 -34 18 -46 34
-48 33 -5 47 -39 24 -64 -17 -19 -17 -20 4 -37 33 -27 63 -83 63 -118 0 -53
-33 -70 -152 -78 -124 -8 -134 -10 -141 -35 -3 -13 -11 -17 -26 -13 -11 3 -18
9 -15 14 3 5 -5 9 -16 9 -21 0 -20 -2 9 -35 18 -21 31 -47 31 -63 0 -15 3 -38
7 -51 4 -16 2 -22 -4 -18 -6 4 -16 -6 -23 -22 -6 -16 -20 -37 -31 -47 -18 -16
-19 -16 -26 2 -5 12 -20 20 -42 22 -21 1 -43 12 -57 27 -17 19 -33 25 -63 25
-42 0 -49 8 -54 68 0 12 -4 22 -8 22 -4 0 -5 8 -2 19 3 14 -6 25 -36 42 -45
25 -59 55 -42 87 12 22 6 32 -20 32 -32 0 -33 22 -3 47 22 18 26 25 16 32 -11
7 -10 9 3 14 10 5 15 16 12 34 -3 20 -12 30 -38 38 -52 18 -80 87 -40 100 21
6 33 36 21 55 -4 6 6 36 21 66 31 60 35 92 18 145 -15 46 -40 65 -109 85 -50
14 -60 21 -71 48 -17 44 -47 74 -85 86 -76 26 -34 32 184 28 l217 -4 85 -38z
m1541 -39 c-10 -9 -11 -8 -5 6 3 10 9 15 12 12 3 -3 0 -11 -7 -18z m-3482 -89
c0 -31 -1 -31 -10 -10 -5 13 -7 28 -3 33 10 16 14 9 13 -23z m156 24 c-6 -5
-39 -6 -75 -2 l-65 7 74 1 c41 1 71 -2 66 -6z m-182 -115 c25 -11 27 -16 28
-79 1 -38 2 -76 3 -85 0 -14 -6 -17 -29 -15 -17 2 -35 10 -41 18 -6 7 -16 14
-23 14 -6 0 -11 4 -11 9 0 5 -8 12 -17 15 -12 4 -19 18 -20 41 -2 19 -4 38 -4
42 -9 57 35 73 114 40z m5967 -57 c0 -5 9 -10 20 -10 11 0 23 -7 26 -15 4 -8
25 -26 48 -40 33 -20 37 -25 19 -25 -27 0 -32 -20 -5 -20 16 -1 16 -1 0 -14
-21 -16 -23 -33 -4 -38 10 -2 11 -9 3 -28 -10 -25 -10 -25 -14 -2 -7 36 -23
25 -23 -15 0 -47 -34 -96 -50 -73 -19 29 -30 86 -37 188 -4 74 -3 102 5 102 7
0 12 -4 12 -10z m110 -34 c0 -3 -4 -8 -10 -11 -5 -3 -10 -1 -10 4 0 6 5 11 10
11 6 0 10 -2 10 -4z m-5724 -36 c36 -14 42 -40 15 -62 -13 -10 -22 -18 -20
-19 2 0 12 -2 22 -4 11 -2 21 -6 24 -8 2 -3 19 -1 35 5 26 9 33 8 45 -7 20
-28 16 -45 -12 -45 -21 0 -25 -5 -25 -32 0 -29 -1 -30 -18 -15 -40 36 -43 9
-7 -65 41 -84 34 -105 -40 -128 -22 -7 -47 -19 -56 -26 -9 -8 -19 -11 -22 -7
-4 3 -12 -8 -18 -25 -8 -22 -18 -32 -32 -32 -12 -1 -59 -2 -104 -4 -46 -1 -83
1 -83 6 0 4 6 8 13 9 6 0 35 11 62 25 28 13 42 22 33 20 -10 -3 -20 -1 -23 4
-4 6 -21 10 -38 10 -24 0 -28 3 -17 10 11 7 11 10 2 10 -7 0 -10 5 -7 10 3 6
-4 10 -18 10 -23 0 -25 -4 -30 -66 -3 -38 -11 -72 -19 -81 -14 -14 -81 -24
-105 -15 -15 5 -17 32 -3 32 6 0 10 20 10 45 0 38 6 60 28 94 1 3 19 6 39 8
19 1 38 4 40 7 3 3 7 59 8 126 2 72 8 127 15 135 9 11 44 15 133 17 l122 3 3
30 c4 42 13 64 19 47 3 -7 16 -17 29 -22z m-353 -115 c-28 -20 -136 -46 -147
-35 -5 5 10 13 35 20 24 6 60 17 79 24 41 15 60 10 33 -9z m617 -337 c0 -14
-30 -48 -42 -48 -13 0 -9 22 9 42 18 21 33 23 33 6z m948 -88 c45 -8 76 -20
112 -46 28 -20 50 -39 50 -44 0 -4 15 -14 33 -21 42 -17 56 -37 57 -79 0 -28
-7 -41 -38 -66 -47 -39 -68 -50 -113 -57 -32 -5 -40 -1 -72 33 -21 20 -37 41
-37 45 0 18 -34 45 -56 45 -14 0 -30 10 -40 25 -9 14 -23 25 -30 25 -10 0 -14
14 -14 48 0 49 20 80 60 95 21 8 19 8 88 -3z m3140 -61 c3 -43 11 -53 28 -38
12 10 18 9 31 -4 9 -9 15 -18 12 -20 -52 -37 -88 -57 -102 -57 -18 0 -22 17
-8 38 4 8 4 34 -1 58 -12 56 -5 79 20 65 10 -5 19 -23 20 -42z m-2228 17 c0
-15 -7 -26 -20 -29 -17 -4 -20 0 -20 24 0 22 5 29 20 29 14 0 20 -7 20 -24z
m-303 8 c-3 -3 -12 -4 -19 -1 -8 3 -5 6 6 6 11 1 17 -2 13 -5z m1283 -59 c404
-16 617 -28 631 -35 18 -10 35 -138 21 -152 -5 -5 -184 -2 -398 7 -567 21
-652 26 -668 39 -17 13 -26 123 -12 145 7 11 36 13 155 7 80 -3 202 -9 271
-11z m-1018 -46 c-2 -19 -17 -53 -33 -76 -16 -23 -29 -47 -29 -55 0 -7 -9 -38
-20 -68 -11 -30 -20 -56 -20 -58 0 -1 -34 -18 -75 -37 -91 -41 -168 -57 -254
-53 -80 4 -97 22 -76 82 12 34 11 42 -6 73 -16 28 -17 38 -8 50 18 21 60 41
110 52 36 8 47 7 61 -6 28 -25 158 -14 193 17 11 9 27 19 35 22 9 3 22 18 30
34 24 49 42 64 69 61 23 -3 26 -8 23 -38z"/>
<path d="M4215 2852 c3 -15 16 -49 28 -77 13 -27 32 -77 44 -110 48 -137 111
-275 126 -275 4 0 6 4 3 9 -3 4 1 33 8 62 22 81 32 184 17 175 -7 -4 -11 0
-11 12 0 10 -7 39 -16 64 -17 53 -53 71 -83 43 -27 -24 -38 -18 -45 24 -3 22
-13 46 -21 55 -8 8 -15 19 -15 24 0 5 -9 12 -21 15 -18 5 -20 2 -14 -21z m155
-212 c0 -5 -4 -10 -10 -10 -5 0 -10 5 -10 10 0 6 5 10 10 10 6 0 10 -4 10 -10z
m60 -67 c0 -21 -3 -24 -9 -14 -5 8 -7 20 -4 28 8 21 13 15 13 -14z"/>
<path d="M3898 2613 c7 -3 16 -2 19 1 4 3 -2 6 -13 5 -11 0 -14 -3 -6 -6z"/>
<path d="M4350 2414 c1 -14 29 -48 35 -42 3 2 -4 15 -15 28 -11 13 -20 19 -20
14z"/>
<path d="M4280 2402 c0 -4 20 -18 45 -31 25 -13 42 -28 38 -34 -4 -6 0 -8 10
-4 10 4 17 1 17 -6 0 -8 4 -6 10 3 17 26 11 37 -19 37 -15 0 -42 9 -59 21 -32
23 -42 27 -42 14z"/>
<path d="M4366 2262 c-22 -27 -24 -32 -7 -17 20 17 47 55 39 55 -2 0 -16 -17
-32 -38z"/>
<path d="M4405 2210 c3 -5 8 -10 11 -10 2 0 4 5 4 10 0 6 -5 10 -11 10 -5 0
-7 -4 -4 -10z"/>
<path d="M4030 1872 c0 -13 17 -27 53 -45 60 -31 67 -32 67 -13 0 7 -15 19
-32 27 -18 7 -45 21 -60 31 -28 19 -28 19 -28 0z"/>
<path d="M4175 1811 c-17 -17 1 -29 52 -36 31 -4 62 -9 70 -12 9 -4 13 4 13
23 0 29 0 29 -65 29 -36 1 -68 -1 -70 -4z"/>
<path d="M4652 1585 c0 -16 2 -22 5 -12 2 9 2 23 0 30 -3 6 -5 -1 -5 -18z"/>
<path d="M4290 1376 c0 -9 -4 -16 -10 -16 -5 0 -10 -6 -10 -14 0 -8 -6 -17
-12 -20 -10 -5 -10 -7 0 -12 17 -8 15 -24 -3 -24 -18 0 -20 -20 -2 -20 6 -1
-4 -9 -23 -20 -27 -15 -31 -19 -15 -20 16 -1 14 -4 -10 -16 -28 -13 -26 -13
49 -11 l79 2 1 90 c1 86 0 90 -22 93 -15 2 -22 -2 -22 -12z"/>
<path d="M3824 1356 c-38 -17 -79 -70 -87 -113 l-6 -33 49 0 c49 0 49 0 59 38
34 136 34 129 -15 108z"/>
<path d="M4401 1176 c11 -9 180 -15 174 -6 -3 5 -45 10 -92 10 -48 0 -84 -2
-82 -4z"/>
<path d="M4065 1151 c-14 -6 4 -10 60 -13 44 -3 84 -1 90 4 5 4 -2 8 -17 8
-14 0 -45 2 -69 5 -24 2 -53 1 -64 -4z"/>
<path d="M3708 953 c6 -2 18 -2 25 0 6 3 1 5 -13 5 -14 0 -19 -2 -12 -5z"/>
<path d="M4037 949 c7 -7 15 -10 18 -7 3 3 -2 9 -12 12 -14 6 -15 5 -6 -5z"/>
<path d="M4382 945 c3 -3 53 -18 110 -31 220 -53 239 -54 271 -8 11 14 17 27
15 29 -7 8 -403 18 -396 10z"/>
<path d="M4015 851 c-11 -5 -27 -20 -34 -35 -8 -14 -22 -28 -33 -32 -10 -3
-18 -9 -18 -13 0 -21 149 -29 196 -11 l26 10 -33 23 c-19 12 -38 33 -44 45
-10 23 -26 26 -60 13z"/>
<path d="M4280 799 c0 -7 -10 -9 -24 -7 -26 5 -55 -6 -44 -17 3 -3 17 -8 32
-11 14 -2 37 -9 51 -14 32 -12 145 -13 164 -1 10 6 -12 17 -72 35 -95 29 -107
31 -107 15z"/>
<path d="M3760 790 c0 -15 36 -30 74 -30 41 0 50 24 14 34 -35 9 -88 7 -88 -4z"/>
<path d="M1181 2824 c0 -11 3 -14 6 -6 3 7 2 16 -1 19 -3 4 -6 -2 -5 -13z"/>
<path d="M2560 2665 c0 -11 11 -15 40 -15 29 0 40 4 40 15 0 11 -11 15 -40 15
-29 0 -40 -4 -40 -15z"/>
<path d="M2935 2451 c-6 -5 -21 -11 -35 -14 -16 -3 -10 -5 18 -6 31 -1 42 3
42 14 0 17 -11 20 -25 6z"/>
<path d="M3298 2113 c6 -2 18 -2 25 0 6 3 1 5 -13 5 -14 0 -19 -2 -12 -5z"/>
<path d="M3296 1991 c-1 -3 -4 -27 -5 -53 -3 -57 15 -65 21 -10 3 20 8 44 12
53 5 11 2 16 -9 16 -9 0 -17 -3 -19 -6z"/>
<path d="M2777 1966 c-9 -7 -17 -20 -17 -29 0 -9 -4 -19 -10 -22 -14 -9 -13
-35 2 -35 6 0 8 3 5 6 -7 7 22 64 38 76 5 4 7 9 5 12 -3 2 -13 -1 -23 -8z"/>
<path d="M2722 1860 c0 -14 2 -19 5 -12 2 6 2 18 0 25 -3 6 -5 1 -5 -13z"/>
<path d="M1511 1404 c0 -11 3 -14 6 -6 3 7 2 16 -1 19 -3 4 -6 -2 -5 -13z"/>
<path d="M4502 2383 c-13 -14 -21 -30 -18 -36 3 -9 5 -9 5 0 1 7 17 15 36 19
31 6 53 20 44 28 -17 15 -47 10 -67 -11z"/>
<path d="M2256 895 c-27 -20 -16 -39 12 -20 21 16 30 35 15 35 -5 0 -16 -7
-27 -15z"/>
<path d="M630 985 c-7 -9 -8 -15 -2 -15 5 0 12 7 16 15 3 8 4 15 2 15 -2 0 -9
-7 -16 -15z"/>
<path d="M676 925 c-3 -8 -1 -15 4 -15 6 0 10 7 10 15 0 8 -2 15 -4 15 -2 0
-6 -7 -10 -15z"/>
<path d="M18 3353 c12 -2 30 -2 40 0 9 3 -1 5 -23 4 -22 0 -30 -2 -17 -4z"/>
<path d="M610 3093 c0 -142 -3 -309 -7 -370 -6 -112 -6 -113 -31 -113 -17 0
-22 -4 -18 -15 3 -8 9 -22 12 -30 7 -17 -80 -62 -140 -73 -43 -8 -55 -23 -33
-43 7 -7 11 -23 9 -36 -3 -16 0 -23 12 -23 23 0 20 -16 -9 -54 -26 -34 -32
-56 -16 -56 5 0 11 -6 14 -12 2 -7 3 -6 2 3 -3 18 33 39 67 39 16 0 19 3 11
11 -6 6 -9 19 -6 28 6 21 23 61 34 83 6 12 3 18 -9 22 -9 3 0 4 20 1 21 -2 40
0 43 5 3 4 13 6 24 3 10 -2 25 3 34 11 22 22 25 20 30 -16 2 -22 4 -15 5 21 2
46 -1 56 -23 73 -14 11 -22 24 -19 29 3 6 5 74 5 151 -2 116 1 143 14 158 14
15 15 39 11 166 -7 196 -16 294 -27 294 -5 0 -9 -108 -9 -257z"/>
<path d="M203 3293 c-15 -6 -17 -43 -3 -43 12 0 24 25 18 38 -1 5 -9 7 -15 5z"/>
<path d="M192 3210 c0 -19 2 -27 5 -17 2 9 2 25 0 35 -3 9 -5 1 -5 -18z"/>
<path d="M0 2426 l0 -44 49 -4 49 -3 4 43 c2 24 1 45 -1 48 -2 2 -26 4 -53 4
l-48 0 0 -44z"/>
<path d="M1 1823 c-1 -34 4 -39 28 -24 11 7 11 10 -1 17 -8 5 -18 16 -21 24
-3 8 -6 0 -6 -17z"/>
<path d="M1 1748 c-1 -21 2 -38 7 -38 12 0 38 20 26 20 -5 0 -15 12 -21 28
-11 27 -11 27 -12 -10z"/>
<path d="M6460 694 c0 -31 23 -28 28 4 2 15 -2 22 -12 22 -11 0 -16 -9 -16
-26z"/>
</g>
</svg>
